# Blender v3.1.2 OBJ File: ''
# www.blender.org
mtllib apacola2.mtl
o apacola2.001
v -0.300000 -0.006666 -0.013333
v -0.300000 -0.106666 -0.013333
v -0.300000 -0.106666 0.186666
v -0.300000 -0.106666 -0.213334
v -0.300000 -0.006666 -0.113333
v -0.300000 -0.006666 -0.213333
v -0.300000 0.093334 0.186667
v -0.300000 0.093334 -0.113333
v -0.300000 0.093334 -0.213333
v 0.300000 -0.106666 0.186666
v 0.300000 -0.106666 -0.013333
v 0.300000 -0.006666 -0.013333
v 0.300000 -0.106666 -0.213334
v 0.300000 -0.006666 -0.113333
v 0.300000 -0.006666 -0.213333
v 0.300000 0.093334 0.186667
v 0.300000 0.093334 -0.113333
v 0.300000 0.093334 -0.213333
v -0.200000 -0.106666 0.186666
v -0.300000 0.093334 0.186667
v -0.300000 -0.106666 0.186666
v -0.200000 -0.006666 0.186666
v -0.100000 -0.006666 0.186666
v -0.100000 0.093334 0.186667
v 0.100000 -0.006666 0.186666
v 0.100000 0.093334 0.186667
v 0.200000 -0.106666 0.186666
v 0.200000 -0.006666 0.186666
v 0.300000 -0.106666 0.186666
v 0.300000 0.093334 0.186667
v -0.300000 -0.106666 -0.213334
v -0.300000 -0.006666 -0.213333
v 0.300000 -0.106666 -0.213334
v -0.300000 0.093334 -0.213333
v 0.300000 -0.006666 -0.213333
v 0.300000 0.093334 -0.213333
v -0.300000 -0.106666 -0.013333
v -0.200000 -0.106666 0.186666
v -0.300000 -0.106666 0.186666
v -0.200000 -0.106666 -0.013333
v 0.200000 -0.106666 0.186666
v 0.200000 -0.106666 -0.013333
v 0.300000 -0.106666 0.186666
v 0.300000 -0.106666 -0.013333
v -0.300000 -0.106666 -0.213334
v 0.300000 -0.106666 -0.213334
v -0.300000 0.093334 0.186667
v -0.100000 0.093334 0.186667
v -0.200000 0.093334 -0.013333
v 0.100000 0.093334 0.186667
v -0.100000 0.093334 -0.013333
v 0.300000 0.093334 0.186667
v 0.100000 0.093334 -0.013333
v 0.200000 0.093334 -0.013333
v -0.300000 0.093334 -0.113333
v -0.200000 0.093334 -0.113333
v 0.200000 0.093334 -0.113333
v 0.300000 0.093334 -0.113333
v -0.300000 0.093334 -0.213333
v 0.300000 0.093334 -0.213333
vt 0.958984 0.500000
vt 0.958984 0.500000
vt 0.958984 0.500000
vt 0.373047 0.500000
vt 0.373047 0.500000
vt 0.373047 0.500000
vt 0.373047 0.500000
vt 0.373047 0.500000
vt 0.958984 0.500000
vt 0.958984 0.500000
vt 0.537109 0.500000
vt 0.537109 0.500000
vt 0.537109 0.500000
vt 0.958984 0.500000
vt 0.537109 0.500000
vt 0.958984 0.500000
vt 0.958984 0.500000
vt 0.958984 0.500000
vt 0.373047 0.500000
vt 0.373047 0.500000
vt 0.373047 0.500000
vt 0.373047 0.500000
vt 0.373047 0.500000
vt 0.958984 0.500000
vt 0.958984 0.500000
vt 0.537109 0.500000
vt 0.537109 0.500000
vt 0.537109 0.500000
vt 0.958984 0.500000
vt 0.537109 0.500000
vt 0.958984 0.500000
vt 0.958984 0.500000
vt 0.958984 0.500000
vt 0.958984 0.500000
vt 0.373047 0.500000
vt 0.373047 0.500000
vt 0.373047 0.500000
vt 0.958984 0.500000
vt 0.958984 0.500000
vt 0.373047 0.500000
vt 0.537109 0.500000
vt 0.537109 0.500000
vt 0.537109 0.500000
vt 0.537109 0.500000
vt 0.373047 0.500000
vt 0.958984 0.500000
vt 0.958984 0.500000
vt 0.958984 0.500000
vt 0.373047 0.500000
vt 0.958984 0.500000
vt 0.958984 0.500000
vt 0.958984 0.500000
vt 0.373047 0.500000
vt 0.373047 0.500000
vt 0.373047 0.500000
vt 0.537109 0.500000
vt 0.537109 0.500000
vt 0.537109 0.500000
vt 0.373047 0.500000
vt 0.537109 0.500000
vt 0.958984 0.500000
vt 0.958984 0.500000
vt 0.958984 0.500000
vt 0.373047 0.500000
vt 0.373047 0.500000
vt 0.373047 0.500000
vt 0.958984 0.500000
vt 0.958984 0.500000
vt 0.958984 0.500000
vt 0.958984 0.500000
vt 0.373047 0.500000
vt 0.958984 0.500000
vt 0.373047 0.500000
vt 0.373047 0.500000
vt 0.373047 0.500000
vt 0.373047 0.500000
vt 0.958984 0.500000
vt 0.958984 0.500000
vt 0.958984 0.500000
vt 0.537109 0.500000
vt 0.537109 0.500000
vt 0.537109 0.500000
vt 0.958984 0.500000
vt 0.958984 0.500000
vt 0.958984 0.500000
vt 0.958984 0.500000
vt 0.537109 0.500000
vt 0.958984 0.500000
vt 0.958984 0.500000
vt 0.537109 0.500000
vt 0.537109 0.500000
vt 0.958984 0.500000
vt 0.537109 0.500000
vt 0.958984 0.500000
vt 0.537109 0.500000
vt 0.958984 0.500000
vt 0.537109 0.500000
vt 0.537109 0.500000
vt 0.537109 0.500000
vt 0.537109 0.500000
vn -1.0000 0.0000 0.0000
vn 1.0000 -0.0000 0.0000
vn 0.0000 -0.0000 1.0000
vn 0.0000 0.0000 -1.0000
vn 0.0000 -1.0000 -0.0000
vn -0.0000 1.0000 0.0000
usemtl palette.017
s 1
f 1/1/1 2/2/1 3/3/1
f 1/4/1 4/5/1 2/6/1
f 5/7/1 4/5/1 1/4/1
f 6/8/1 4/5/1 5/7/1
f 7/9/1 1/1/1 3/3/1
f 7/9/1 5/10/1 1/1/1
f 8/11/1 6/12/1 5/13/1
f 8/14/1 5/10/1 7/9/1
f 9/15/1 6/12/1 8/11/1
f 10/16/2 11/17/2 12/18/2
f 11/19/2 13/20/2 12/21/2
f 12/21/2 13/20/2 14/22/2
f 14/22/2 13/20/2 15/23/2
f 10/16/2 12/18/2 16/24/2
f 12/18/2 14/25/2 16/24/2
f 14/26/2 15/27/2 17/28/2
f 16/24/2 14/25/2 17/29/2
f 17/28/2 15/27/2 18/30/2
f 19/31/3 20/32/3 21/33/3
f 22/34/3 20/32/3 19/31/3
f 23/35/3 22/36/3 19/37/3
f 23/38/3 20/32/3 22/34/3
f 24/39/3 20/32/3 23/38/3
f 25/40/3 23/35/3 19/37/3
f 25/41/3 24/42/3 23/43/3
f 26/44/3 24/42/3 25/41/3
f 27/45/3 25/40/3 19/37/3
f 28/46/3 26/47/3 25/48/3
f 28/49/3 25/40/3 27/45/3
f 29/50/3 28/46/3 27/51/3
f 30/52/3 26/47/3 28/46/3
f 30/52/3 28/46/3 29/50/3
f 31/53/4 32/54/4 33/55/4
f 32/56/4 34/57/4 35/58/4
f 33/55/4 32/54/4 35/59/4
f 35/58/4 34/57/4 36/60/4
f 37/61/5 38/62/5 39/63/5
f 40/64/5 41/65/5 38/66/5
f 40/67/5 38/62/5 37/61/5
f 42/68/5 43/69/5 41/70/5
f 42/71/5 41/65/5 40/64/5
f 44/72/5 43/69/5 42/68/5
f 45/73/5 40/64/5 37/74/5
f 45/73/5 42/71/5 40/64/5
f 45/73/5 44/75/5 42/71/5
f 46/76/5 44/75/5 45/73/5
f 47/77/6 48/78/6 49/79/6
f 48/80/6 50/81/6 51/82/6
f 49/79/6 48/78/6 51/83/6
f 50/84/6 52/85/6 53/86/6
f 51/82/6 50/81/6 53/87/6
f 53/86/6 52/85/6 54/88/6
f 47/77/6 49/79/6 55/89/6
f 49/90/6 51/82/6 56/91/6
f 55/89/6 49/79/6 56/92/6
f 51/82/6 53/87/6 56/91/6
f 53/87/6 54/93/6 56/91/6
f 54/88/6 52/85/6 57/94/6
f 56/91/6 54/93/6 57/95/6
f 57/94/6 52/85/6 58/96/6
f 55/97/6 56/91/6 59/98/6
f 56/91/6 57/95/6 59/98/6
f 57/95/6 58/99/6 59/98/6
f 59/98/6 58/99/6 60/100/6
