# Blender v3.1.2 OBJ File: ''
# www.blender.org
mtllib apapiernas.mtl
o apapiernas.002
v -0.558601 -0.133334 0.171429
v -0.558601 -0.233334 -0.028571
v -0.558601 -0.233334 0.171429
v -0.558601 -0.133334 0.071429
v -0.558601 -0.133333 -0.028571
v -0.558601 -0.233333 -0.228571
v -0.558601 0.466667 0.071429
v -0.558601 0.466667 -0.228571
v -0.258601 -0.233334 0.171429
v -0.258601 -0.233334 -0.028571
v -0.258601 -0.133334 0.171429
v -0.258601 -0.133334 0.071429
v -0.258601 -0.233333 -0.228571
v -0.258601 -0.133333 -0.028571
v -0.258601 0.466667 0.071429
v -0.258601 0.466667 -0.228571
v -0.258601 -0.233334 0.171429
v -0.558601 -0.133334 0.171429
v -0.558601 -0.233334 0.171429
v -0.258601 -0.133334 0.171429
v -0.258601 -0.133334 0.071429
v -0.558601 0.466667 0.071429
v -0.558601 -0.133334 0.071429
v -0.258601 0.466667 0.071429
v -0.558601 -0.233333 -0.228571
v -0.558601 0.466667 -0.228571
v -0.258601 -0.233333 -0.228571
v -0.258601 0.466667 -0.228571
v -0.558601 -0.233334 -0.028571
v -0.258601 -0.233334 0.171429
v -0.558601 -0.233334 0.171429
v -0.258601 -0.233334 -0.028571
v -0.558601 -0.233333 -0.228571
v -0.258601 -0.233333 -0.228571
v -0.558601 -0.133334 0.171429
v -0.258601 -0.133334 0.171429
v -0.558601 -0.133334 0.071429
v -0.258601 -0.133334 0.071429
v -0.558601 0.466667 0.071429
v -0.258601 0.466667 0.071429
v -0.558601 0.466667 -0.228571
v -0.258601 0.466667 -0.228571
vt 0.994141 0.500000
vt 0.994141 0.500000
vt 0.994141 0.500000
vt 0.994141 0.500000
vt 0.958984 0.500000
vt 0.958984 0.500000
vt 0.958984 0.500000
vt 0.994141 0.500000
vt 0.958984 0.500000
vt 0.958984 0.500000
vt 0.958984 0.500000
vt 0.994141 0.500000
vt 0.994141 0.500000
vt 0.994141 0.500000
vt 0.994141 0.500000
vt 0.958984 0.500000
vt 0.958984 0.500000
vt 0.958984 0.500000
vt 0.994141 0.500000
vt 0.958984 0.500000
vt 0.958984 0.500000
vt 0.958984 0.500000
vt 0.994141 0.500000
vt 0.994141 0.500000
vt 0.994141 0.500000
vt 0.994141 0.500000
vt 0.958984 0.500000
vt 0.958984 0.500000
vt 0.958984 0.500000
vt 0.958984 0.500000
vt 0.958984 0.500000
vt 0.958984 0.500000
vt 0.958984 0.500000
vt 0.958984 0.500000
vt 0.994141 0.500000
vt 0.994141 0.500000
vt 0.994141 0.500000
vt 0.994141 0.500000
vt 0.958984 0.500000
vt 0.958984 0.500000
vt 0.958984 0.500000
vt 0.958984 0.500000
vt 0.994141 0.500000
vt 0.994141 0.500000
vt 0.994141 0.500000
vt 0.994141 0.500000
vt 0.958984 0.500000
vt 0.958984 0.500000
vt 0.958984 0.500000
vt 0.958984 0.500000
vn -1.0000 0.0000 0.0000
vn 1.0000 0.0000 0.0000
vn 0.0000 -0.0000 1.0000
vn 0.0000 0.0000 -1.0000
vn 0.0000 -1.0000 -0.0000
vn 0.0000 1.0000 0.0000
usemtl palette.014
s 1
f 1/1/1 2/2/1 3/3/1
f 4/4/1 2/2/1 1/1/1
f 5/5/1 6/6/1 2/7/1
f 5/8/1 2/2/1 4/4/1
f 7/9/1 5/5/1 4/10/1
f 8/11/1 6/6/1 5/5/1
f 8/11/1 5/5/1 7/9/1
f 9/12/2 10/13/2 11/14/2
f 11/14/2 10/13/2 12/15/2
f 10/16/2 13/17/2 14/18/2
f 12/15/2 10/13/2 14/19/2
f 12/20/2 14/18/2 15/21/2
f 14/18/2 13/17/2 16/22/2
f 15/21/2 14/18/2 16/22/2
f 17/23/3 18/24/3 19/25/3
f 20/26/3 18/24/3 17/23/3
f 21/27/3 22/28/3 23/29/3
f 24/30/3 22/28/3 21/27/3
f 25/31/4 26/32/4 27/33/4
f 27/33/4 26/32/4 28/34/4
f 29/35/5 30/36/5 31/37/5
f 32/38/5 30/36/5 29/35/5
f 33/39/5 32/40/5 29/41/5
f 34/42/5 32/40/5 33/39/5
f 35/43/6 36/44/6 37/45/6
f 37/45/6 36/44/6 38/46/6
f 39/47/6 40/48/6 41/49/6
f 41/49/6 40/48/6 42/50/6
o apapiernas.003
v 0.258601 -0.133334 0.171429
v 0.258601 -0.233334 -0.028571
v 0.258601 -0.233334 0.171429
v 0.258601 -0.133334 0.071429
v 0.258601 -0.133333 -0.028571
v 0.258601 -0.233333 -0.228571
v 0.258601 0.466667 0.071429
v 0.258601 0.466667 -0.228571
v 0.558601 -0.233334 0.171429
v 0.558601 -0.233334 -0.028571
v 0.558601 -0.133334 0.171429
v 0.558601 -0.133334 0.071429
v 0.558601 -0.233333 -0.228571
v 0.558601 -0.133333 -0.028571
v 0.558601 0.466667 0.071429
v 0.558601 0.466667 -0.228571
v 0.558601 -0.233334 0.171429
v 0.258601 -0.133334 0.171429
v 0.258601 -0.233334 0.171429
v 0.558601 -0.133334 0.171429
v 0.558601 -0.133334 0.071429
v 0.258601 0.466667 0.071429
v 0.258601 -0.133334 0.071429
v 0.558601 0.466667 0.071429
v 0.258601 -0.233333 -0.228571
v 0.258601 0.466667 -0.228571
v 0.558601 -0.233333 -0.228571
v 0.558601 0.466667 -0.228571
v 0.258601 -0.233334 -0.028571
v 0.558601 -0.233334 0.171429
v 0.258601 -0.233334 0.171429
v 0.558601 -0.233334 -0.028571
v 0.258601 -0.233333 -0.228571
v 0.558601 -0.233333 -0.228571
v 0.258601 -0.133334 0.171429
v 0.558601 -0.133334 0.171429
v 0.258601 -0.133334 0.071429
v 0.558601 -0.133334 0.071429
v 0.258601 0.466667 0.071429
v 0.558601 0.466667 0.071429
v 0.258601 0.466667 -0.228571
v 0.558601 0.466667 -0.228571
vt 0.994141 0.500000
vt 0.994141 0.500000
vt 0.994141 0.500000
vt 0.994141 0.500000
vt 0.958984 0.500000
vt 0.958984 0.500000
vt 0.958984 0.500000
vt 0.994141 0.500000
vt 0.958984 0.500000
vt 0.958984 0.500000
vt 0.958984 0.500000
vt 0.994141 0.500000
vt 0.994141 0.500000
vt 0.994141 0.500000
vt 0.994141 0.500000
vt 0.958984 0.500000
vt 0.958984 0.500000
vt 0.958984 0.500000
vt 0.994141 0.500000
vt 0.958984 0.500000
vt 0.958984 0.500000
vt 0.958984 0.500000
vt 0.994141 0.500000
vt 0.994141 0.500000
vt 0.994141 0.500000
vt 0.994141 0.500000
vt 0.958984 0.500000
vt 0.958984 0.500000
vt 0.958984 0.500000
vt 0.958984 0.500000
vt 0.958984 0.500000
vt 0.958984 0.500000
vt 0.958984 0.500000
vt 0.958984 0.500000
vt 0.994141 0.500000
vt 0.994141 0.500000
vt 0.994141 0.500000
vt 0.994141 0.500000
vt 0.958984 0.500000
vt 0.958984 0.500000
vt 0.958984 0.500000
vt 0.958984 0.500000
vt 0.994141 0.500000
vt 0.994141 0.500000
vt 0.994141 0.500000
vt 0.994141 0.500000
vt 0.958984 0.500000
vt 0.958984 0.500000
vt 0.958984 0.500000
vt 0.958984 0.500000
vn -1.0000 -0.0000 0.0000
vn 1.0000 -0.0000 0.0000
vn 0.0000 -0.0000 1.0000
vn 0.0000 0.0000 -1.0000
vn 0.0000 -1.0000 -0.0000
vn 0.0000 1.0000 0.0000
usemtl palette.015
s 1
f 43/51/7 44/52/7 45/53/7
f 46/54/7 44/52/7 43/51/7
f 47/55/7 48/56/7 44/57/7
f 47/58/7 44/52/7 46/54/7
f 49/59/7 47/55/7 46/60/7
f 50/61/7 48/56/7 47/55/7
f 50/61/7 47/55/7 49/59/7
f 51/62/8 52/63/8 53/64/8
f 53/64/8 52/63/8 54/65/8
f 52/66/8 55/67/8 56/68/8
f 54/65/8 52/63/8 56/69/8
f 54/70/8 56/68/8 57/71/8
f 56/68/8 55/67/8 58/72/8
f 57/71/8 56/68/8 58/72/8
f 59/73/9 60/74/9 61/75/9
f 62/76/9 60/74/9 59/73/9
f 63/77/9 64/78/9 65/79/9
f 66/80/9 64/78/9 63/77/9
f 67/81/10 68/82/10 69/83/10
f 69/83/10 68/82/10 70/84/10
f 71/85/11 72/86/11 73/87/11
f 74/88/11 72/86/11 71/85/11
f 75/89/11 74/90/11 71/91/11
f 76/92/11 74/90/11 75/89/11
f 77/93/12 78/94/12 79/95/12
f 79/95/12 78/94/12 80/96/12
f 81/97/12 82/98/12 83/99/12
f 83/99/12 82/98/12 84/100/12
