# Blender v3.1.2 OBJ File: ''
# www.blender.org
mtllib BombPieIzq.mtl
o bomberman
v -0.249999 -0.076000 0.254000
v -0.249999 -0.176000 -0.246000
v -0.249999 -0.176000 0.254000
v -0.249999 -0.076000 -0.246000
v -0.149999 -0.076000 0.354000
v -0.149999 -0.176000 0.254000
v -0.149999 -0.176000 0.354000
v -0.149999 -0.076000 0.254000
v -0.149999 -0.076000 -0.246000
v -0.149999 -0.176000 -0.346000
v -0.149999 -0.176000 -0.246000
v -0.149999 -0.076000 -0.346000
v -0.149999 0.024000 0.254000
v -0.149999 0.024000 0.054000
v -0.149999 0.024000 -0.246000
v -0.149999 0.724000 0.054000
v -0.149999 0.724000 -0.246000
v 0.150001 -0.176000 0.354000
v 0.150001 -0.176000 0.254000
v 0.150001 -0.076000 0.354000
v 0.150001 -0.076000 0.254000
v 0.150001 -0.176000 -0.246000
v 0.150001 -0.176000 -0.346000
v 0.150001 -0.076000 -0.246000
v 0.150001 -0.076000 -0.346000
v 0.150001 0.024000 0.254000
v 0.150001 0.024000 0.054000
v 0.150001 0.024000 -0.246000
v 0.150001 0.724000 0.054000
v 0.150001 0.724000 -0.246000
v 0.250001 -0.176000 0.254000
v 0.250001 -0.176000 -0.246000
v 0.250001 -0.076000 0.254000
v 0.250001 -0.076000 -0.246000
v 0.150001 -0.176000 0.354000
v -0.149999 -0.076000 0.354000
v -0.149999 -0.176000 0.354000
v 0.150001 -0.076000 0.354000
v -0.149999 -0.176000 0.254000
v -0.249999 -0.076000 0.254000
v -0.249999 -0.176000 0.254000
v -0.149999 -0.076000 0.254000
v 0.150001 -0.076000 0.254000
v -0.149999 0.024000 0.254000
v 0.150001 0.024000 0.254000
v 0.250001 -0.176000 0.254000
v 0.150001 -0.176000 0.254000
v 0.250001 -0.076000 0.254000
v 0.150001 0.024000 0.054000
v -0.149999 0.724000 0.054000
v -0.149999 0.024000 0.054000
v 0.150001 0.724000 0.054000
v -0.249999 -0.176000 -0.246000
v -0.249999 -0.076000 -0.246000
v -0.149999 -0.176000 -0.246000
v -0.149999 -0.076000 -0.246000
v -0.149999 0.024000 -0.246000
v 0.150001 -0.076000 -0.246000
v -0.149999 0.724000 -0.246000
v 0.150001 0.024000 -0.246000
v 0.150001 0.724000 -0.246000
v 0.150001 -0.176000 -0.246000
v 0.250001 -0.176000 -0.246000
v 0.250001 -0.076000 -0.246000
v -0.149999 -0.176000 -0.346000
v -0.149999 -0.076000 -0.346000
v 0.150001 -0.176000 -0.346000
v 0.150001 -0.076000 -0.346000
v -0.149999 -0.176000 0.254000
v 0.150001 -0.176000 0.354000
v -0.149999 -0.176000 0.354000
v 0.150001 -0.176000 0.254000
v -0.249999 -0.176000 -0.246000
v 0.250001 -0.176000 0.254000
v -0.249999 -0.176000 0.254000
v -0.149999 -0.176000 -0.246000
v 0.150001 -0.176000 -0.246000
v 0.250001 -0.176000 -0.246000
v -0.149999 -0.176000 -0.346000
v 0.150001 -0.176000 -0.346000
v -0.149999 -0.076000 0.354000
v 0.150001 -0.076000 0.354000
v -0.149999 -0.076000 0.254000
v 0.150001 -0.076000 0.254000
v -0.249999 -0.076000 0.254000
v -0.249999 -0.076000 -0.246000
v -0.149999 -0.076000 -0.246000
v 0.250001 -0.076000 0.254000
v 0.150001 -0.076000 -0.246000
v 0.250001 -0.076000 -0.246000
v -0.149999 -0.076000 -0.346000
v 0.150001 -0.076000 -0.346000
v -0.149999 0.024000 0.254000
v 0.150001 0.024000 0.254000
v -0.149999 0.024000 0.054000
v 0.150001 0.024000 0.054000
v -0.149999 0.724000 0.054000
v 0.150001 0.724000 0.054000
v -0.149999 0.724000 -0.246000
v 0.150001 0.724000 -0.246000
vt 0.126953 0.500000
vt 0.126953 0.500000
vt 0.126953 0.500000
vt 0.126953 0.500000
vt 0.126953 0.500000
vt 0.126953 0.500000
vt 0.126953 0.500000
vt 0.126953 0.500000
vt 0.126953 0.500000
vt 0.126953 0.500000
vt 0.126953 0.500000
vt 0.126953 0.500000
vt 0.126953 0.500000
vt 0.126953 0.500000
vt 0.126953 0.500000
vt 0.958984 0.500000
vt 0.958984 0.500000
vt 0.958984 0.500000
vt 0.958984 0.500000
vt 0.126953 0.500000
vt 0.126953 0.500000
vt 0.126953 0.500000
vt 0.126953 0.500000
vt 0.126953 0.500000
vt 0.126953 0.500000
vt 0.126953 0.500000
vt 0.126953 0.500000
vt 0.126953 0.500000
vt 0.126953 0.500000
vt 0.126953 0.500000
vt 0.958984 0.500000
vt 0.958984 0.500000
vt 0.958984 0.500000
vt 0.958984 0.500000
vt 0.126953 0.500000
vt 0.126953 0.500000
vt 0.126953 0.500000
vt 0.126953 0.500000
vt 0.126953 0.500000
vt 0.126953 0.500000
vt 0.126953 0.500000
vt 0.126953 0.500000
vt 0.126953 0.500000
vt 0.126953 0.500000
vt 0.126953 0.500000
vt 0.126953 0.500000
vt 0.126953 0.500000
vt 0.126953 0.500000
vt 0.126953 0.500000
vt 0.126953 0.500000
vt 0.126953 0.500000
vt 0.126953 0.500000
vt 0.958984 0.500000
vt 0.958984 0.500000
vt 0.958984 0.500000
vt 0.958984 0.500000
vt 0.126953 0.500000
vt 0.126953 0.500000
vt 0.126953 0.500000
vt 0.126953 0.500000
vt 0.126953 0.500000
vt 0.126953 0.500000
vt 0.958984 0.500000
vt 0.958984 0.500000
vt 0.958984 0.500000
vt 0.126953 0.500000
vt 0.958984 0.500000
vt 0.126953 0.500000
vt 0.126953 0.500000
vt 0.126953 0.500000
vt 0.126953 0.500000
vt 0.126953 0.500000
vt 0.126953 0.500000
vt 0.126953 0.500000
vt 0.126953 0.500000
vt 0.126953 0.500000
vt 0.126953 0.500000
vt 0.126953 0.500000
vt 0.126953 0.500000
vt 0.126953 0.500000
vt 0.126953 0.500000
vt 0.126953 0.500000
vt 0.126953 0.500000
vt 0.126953 0.500000
vt 0.126953 0.500000
vt 0.126953 0.500000
vt 0.126953 0.500000
vt 0.126953 0.500000
vt 0.126953 0.500000
vt 0.126953 0.500000
vt 0.126953 0.500000
vt 0.126953 0.500000
vt 0.126953 0.500000
vt 0.126953 0.500000
vt 0.126953 0.500000
vt 0.126953 0.500000
vt 0.126953 0.500000
vt 0.126953 0.500000
vt 0.126953 0.500000
vt 0.126953 0.500000
vt 0.126953 0.500000
vt 0.126953 0.500000
vt 0.958984 0.500000
vt 0.958984 0.500000
vt 0.958984 0.500000
vt 0.958984 0.500000
vn -1.0000 0.0000 0.0000
vn 1.0000 0.0000 0.0000
vn 0.0000 -0.0000 1.0000
vn 0.0000 0.0000 -1.0000
vn 0.0000 -1.0000 -0.0000
vn 0.0000 1.0000 0.0000
usemtl palette
s 1
f 1/1/1 2/2/1 3/3/1
f 4/4/1 2/2/1 1/1/1
f 5/5/1 6/6/1 7/7/1
f 8/8/1 6/6/1 5/5/1
f 9/9/1 10/10/1 11/11/1
f 12/12/1 10/10/1 9/9/1
f 13/13/1 9/9/1 8/8/1
f 14/14/1 9/9/1 13/13/1
f 15/15/1 9/9/1 14/14/1
f 16/16/1 15/17/1 14/18/1
f 17/19/1 15/17/1 16/16/1
f 18/20/2 19/21/2 20/22/2
f 20/22/2 19/21/2 21/23/2
f 22/24/2 23/25/2 24/26/2
f 24/26/2 23/25/2 25/27/2
f 21/23/2 24/26/2 26/28/2
f 26/28/2 24/26/2 27/29/2
f 27/29/2 24/26/2 28/30/2
f 27/31/2 28/32/2 29/33/2
f 29/33/2 28/32/2 30/34/2
f 31/35/2 32/36/2 33/37/2
f 33/37/2 32/36/2 34/38/2
f 35/39/3 36/40/3 37/41/3
f 38/42/3 36/40/3 35/39/3
f 39/43/3 40/44/3 41/45/3
f 42/46/3 40/44/3 39/43/3
f 43/47/3 44/48/3 42/46/3
f 45/49/3 44/48/3 43/47/3
f 46/50/3 43/47/3 47/51/3
f 48/52/3 43/47/3 46/50/3
f 49/53/3 50/54/3 51/55/3
f 52/56/3 50/54/3 49/53/3
f 53/57/4 54/58/4 55/59/4
f 55/59/4 54/58/4 56/60/4
f 56/60/4 57/61/4 58/62/4
f 57/63/4 59/64/4 60/65/4
f 58/62/4 57/61/4 60/66/4
f 60/65/4 59/64/4 61/67/4
f 62/68/4 58/62/4 63/69/4
f 63/69/4 58/62/4 64/70/4
f 65/71/4 66/72/4 67/73/4
f 67/73/4 66/72/4 68/74/4
f 69/75/5 70/76/5 71/77/5
f 72/78/5 70/76/5 69/75/5
f 73/79/5 74/80/5 72/78/5
f 73/79/5 69/75/5 75/81/5
f 73/79/5 72/78/5 69/75/5
f 76/82/5 74/80/5 73/79/5
f 77/83/5 74/80/5 76/82/5
f 78/84/5 74/80/5 77/83/5
f 79/85/5 77/83/5 76/82/5
f 80/86/5 77/83/5 79/85/5
f 81/87/6 82/88/6 83/89/6
f 83/89/6 82/88/6 84/90/6
f 85/91/6 83/89/6 86/92/6
f 86/92/6 83/89/6 87/93/6
f 84/90/6 88/94/6 89/95/6
f 89/95/6 88/94/6 90/96/6
f 87/93/6 89/95/6 91/97/6
f 91/97/6 89/95/6 92/98/6
f 93/99/6 94/100/6 95/101/6
f 95/101/6 94/100/6 96/102/6
f 97/103/6 98/104/6 99/105/6
f 99/105/6 98/104/6 100/106/6
