# Blender 3.1.0
# www.blender.org
mtllib cubo.mtl
o Cube
v 1.000000 1.000000 -1.000000
v 1.000000 -1.000000 -1.000000
v 1.000000 1.000000 1.000000
v 1.000000 -1.000000 1.000000
v -1.000000 1.000000 -1.000000
v -1.000000 -1.000000 -1.000000
v -1.000000 1.000000 1.000000
v -1.000000 -1.000000 1.000000
vn -0.0000 1.0000 -0.0000
vn -0.0000 -0.0000 1.0000
vn -1.0000 -0.0000 -0.0000
vn -0.0000 -1.0000 -0.0000
vn 1.0000 -0.0000 -0.0000
vn -0.0000 -0.0000 -1.0000
vt 0.504377 0.255654
vt 0.503006 0.505650
vt 0.754373 0.257025
vt 0.753002 0.507021
vt 0.505747 0.005658
vt 0.254380 0.254283
vt 0.501635 0.755646
vt 0.253010 0.504279
vt 0.755743 0.007028
vt 1.004369 0.258395
vt 0.004384 0.252913
vt 0.003013 0.502909
vt 1.002998 0.508391
vt 0.751631 0.757017
s 0
usemtl Material
f 5/5/1 3/3/1 1/1/1
f 3/3/2 8/13/2 4/4/2
f 7/11/3 6/8/3 8/12/3
f 2/2/4 8/14/4 6/7/4
f 1/1/5 4/4/5 2/2/5
f 5/6/6 2/2/6 6/8/6
f 5/5/1 7/9/1 3/3/1
f 3/3/2 7/10/2 8/13/2
f 7/11/3 5/6/3 6/8/3
f 2/2/4 4/4/4 8/14/4
f 1/1/5 3/3/5 4/4/5
f 5/6/6 1/1/6 2/2/6
