# Blender v3.1.2 OBJ File: ''
# www.blender.org
mtllib JooDeeBr.mtl
o JooDee.003
v -0.193891 -0.868272 0.097568
v -0.193891 -0.968272 -0.102432
v -0.193891 -0.968272 0.097568
v -0.193891 -0.868272 -0.102432
v -0.193891 -0.768272 0.197568
v -0.193891 -0.868272 0.197568
v -0.193891 -0.868272 -0.202432
v -0.193891 -0.768272 -0.202432
v -0.193891 -0.568272 0.197568
v -0.193891 -0.568272 -0.202432
v -0.193891 -0.468272 0.197568
v -0.193891 -0.468272 -0.202432
v -0.193891 -0.068272 0.197568
v -0.193891 -0.068272 -0.202432
v -0.093891 0.031727 0.197568
v -0.093891 -0.068272 -0.202432
v -0.093891 -0.068272 0.197568
v -0.093891 0.031728 -0.202432
v 0.106109 -0.968272 0.097568
v 0.106109 -0.968272 -0.102432
v 0.106109 -0.868272 0.097568
v 0.106109 -0.868272 -0.102432
v 0.106109 -0.868272 0.197568
v 0.106109 -0.768272 0.097568
v 0.106109 -0.868272 -0.202432
v 0.106109 -0.768272 -0.202432
v 0.106109 -0.668272 0.197568
v 0.106109 -0.668272 0.097568
v 0.106109 -0.568272 0.197568
v 0.106109 -0.568272 -0.202432
v 0.106109 -0.468272 0.197568
v 0.106109 -0.468272 -0.202432
v 0.106109 0.031727 0.197568
v 0.106109 0.031728 -0.202432
v -0.093891 -0.068272 0.197568
v -0.193891 -0.068272 0.197568
v -0.193891 -0.468272 0.197568
v 0.006109 -0.768272 0.197568
v -0.193891 -0.768272 0.197568
v -0.193891 -0.868272 0.197568
v -0.193891 -0.568272 0.197568
v 0.006109 -0.668272 0.197568
v 0.106109 -0.868272 0.197568
v 0.106109 -0.668272 0.197568
v 0.106109 -0.568272 0.197568
v 0.106109 -0.468272 0.197568
v -0.093891 0.031727 0.197568
v 0.106109 0.031727 0.197568
v 0.106109 -0.968272 0.097568
v -0.193891 -0.868272 0.097568
v -0.193891 -0.968272 0.097568
v 0.106109 -0.868272 0.097568
v -0.193891 -0.968272 -0.102432
v -0.193891 -0.868272 -0.102432
v 0.106109 -0.968272 -0.102432
v 0.106109 -0.868272 -0.102432
v -0.193891 -0.468272 -0.202432
v -0.193891 -0.068272 -0.202432
v -0.093891 -0.068272 -0.202432
v -0.193891 -0.868272 -0.202432
v -0.193891 -0.768272 -0.202432
v 0.106109 -0.868272 -0.202432
v -0.193891 -0.568272 -0.202432
v 0.106109 -0.768272 -0.202432
v 0.106109 -0.568272 -0.202432
v -0.093891 0.031728 -0.202432
v 0.106109 -0.468272 -0.202432
v 0.106109 0.031728 -0.202432
v -0.193891 -0.968272 -0.102432
v 0.106109 -0.968272 0.097568
v -0.193891 -0.968272 0.097568
v 0.106109 -0.968272 -0.102432
v -0.193891 -0.868272 0.097568
v 0.106109 -0.868272 0.197568
v -0.193891 -0.868272 0.197568
v 0.106109 -0.868272 0.097568
v -0.193891 -0.868272 -0.202432
v 0.106109 -0.868272 -0.102432
v -0.193891 -0.868272 -0.102432
v 0.106109 -0.868272 -0.202432
v -0.193891 -0.068272 0.197568
v -0.093891 -0.068272 0.197568
v -0.193891 -0.068272 -0.202432
v -0.093891 -0.068272 -0.202432
v -0.093891 0.031727 0.197568
v 0.106109 0.031727 0.197568
v -0.093891 0.031728 -0.202432
v 0.106109 0.031728 -0.202432
vt 0.060547 0.500000
vt 0.060547 0.500000
vt 0.060547 0.500000
vt 0.060547 0.500000
vt 0.994141 0.500000
vt 0.994141 0.500000
vt 0.994141 0.500000
vt 0.994141 0.500000
vt 0.994141 0.500000
vt 0.994141 0.500000
vt 0.912109 0.500000
vt 0.912109 0.500000
vt 0.912109 0.500000
vt 0.912109 0.500000
vt 0.994141 0.500000
vt 0.994141 0.500000
vt 0.994141 0.500000
vt 0.994141 0.500000
vt 0.228516 0.500000
vt 0.228516 0.500000
vt 0.228516 0.500000
vt 0.228516 0.500000
vt 0.228516 0.500000
vt 0.228516 0.500000
vt 0.228516 0.500000
vt 0.228516 0.500000
vt 0.060547 0.500000
vt 0.060547 0.500000
vt 0.060547 0.500000
vt 0.060547 0.500000
vt 0.994141 0.500000
vt 0.994141 0.500000
vt 0.994141 0.500000
vt 0.994141 0.500000
vt 0.994141 0.500000
vt 0.994141 0.500000
vt 0.994141 0.500000
vt 0.912109 0.500000
vt 0.912109 0.500000
vt 0.912109 0.500000
vt 0.994141 0.500000
vt 0.912109 0.500000
vt 0.912109 0.500000
vt 0.912109 0.500000
vt 0.994141 0.500000
vt 0.994141 0.500000
vt 0.994141 0.500000
vt 0.994141 0.500000
vt 0.228516 0.500000
vt 0.228516 0.500000
vt 0.228516 0.500000
vt 0.228516 0.500000
vt 0.228516 0.500000
vt 0.228516 0.500000
vt 0.228516 0.500000
vt 0.994141 0.500000
vt 0.994141 0.500000
vt 0.994141 0.500000
vt 0.912109 0.500000
vt 0.912109 0.500000
vt 0.912109 0.500000
vt 0.912109 0.500000
vt 0.994141 0.500000
vt 0.994141 0.500000
vt 0.912109 0.500000
vt 0.994141 0.500000
vt 0.994141 0.500000
vt 0.994141 0.500000
vt 0.994141 0.500000
vt 0.912109 0.500000
vt 0.228516 0.500000
vt 0.228516 0.500000
vt 0.994141 0.500000
vt 0.228516 0.500000
vt 0.060547 0.500000
vt 0.060547 0.500000
vt 0.060547 0.500000
vt 0.060547 0.500000
vt 0.060547 0.500000
vt 0.060547 0.500000
vt 0.060547 0.500000
vt 0.060547 0.500000
vt 0.228516 0.500000
vt 0.228516 0.500000
vt 0.228516 0.500000
vt 0.994141 0.500000
vt 0.994141 0.500000
vt 0.994141 0.500000
vt 0.912109 0.500000
vt 0.912109 0.500000
vt 0.912109 0.500000
vt 0.994141 0.500000
vt 0.994141 0.500000
vt 0.994141 0.500000
vt 0.994141 0.500000
vt 0.912109 0.500000
vt 0.228516 0.500000
vt 0.228516 0.500000
vt 0.994141 0.500000
vt 0.228516 0.500000
vt 0.060547 0.500000
vt 0.060547 0.500000
vt 0.060547 0.500000
vt 0.060547 0.500000
vt 0.994141 0.500000
vt 0.994141 0.500000
vt 0.994141 0.500000
vt 0.994141 0.500000
vt 0.994141 0.500000
vt 0.994141 0.500000
vt 0.994141 0.500000
vt 0.994141 0.500000
vt 0.228516 0.500000
vt 0.228516 0.500000
vt 0.228516 0.500000
vt 0.228516 0.500000
vt 0.228516 0.500000
vt 0.228516 0.500000
vt 0.228516 0.500000
vt 0.228516 0.500000
vn -1.0000 0.0000 0.0000
vn 1.0000 -0.0000 0.0000
vn 0.0000 -0.0000 1.0000
vn 0.0000 0.0000 -1.0000
vn 0.0000 -1.0000 0.0000
vn 0.0000 1.0000 0.0000
usemtl palette.004
s 1
f 1/1/1 2/2/1 3/3/1
f 4/4/1 2/2/1 1/1/1
f 5/5/1 1/6/1 6/7/1
f 5/5/1 7/8/1 4/9/1
f 5/5/1 4/9/1 1/6/1
f 8/10/1 7/8/1 5/5/1
f 9/11/1 8/12/1 5/13/1
f 10/14/1 8/12/1 9/11/1
f 11/15/1 10/16/1 9/17/1
f 12/18/1 10/16/1 11/15/1
f 13/19/1 12/20/1 11/21/1
f 14/22/1 12/20/1 13/19/1
f 15/23/1 16/24/1 17/25/1
f 18/26/1 16/24/1 15/23/1
f 19/27/2 20/28/2 21/29/2
f 21/29/2 20/28/2 22/30/2
f 23/31/2 21/32/2 24/33/2
f 22/34/2 25/35/2 24/33/2
f 21/32/2 22/34/2 24/33/2
f 24/33/2 25/35/2 26/36/2
f 23/31/2 24/33/2 27/37/2
f 24/38/2 26/39/2 28/40/2
f 27/37/2 24/33/2 28/41/2
f 27/42/2 28/40/2 29/43/2
f 28/40/2 26/39/2 30/44/2
f 29/43/2 28/40/2 30/44/2
f 29/45/2 30/46/2 31/47/2
f 31/47/2 30/46/2 32/48/2
f 31/49/2 32/50/2 33/51/2
f 33/51/2 32/50/2 34/52/2
f 35/53/3 36/54/3 37/55/3
f 38/56/3 39/57/3 40/58/3
f 38/59/3 41/60/3 39/61/3
f 42/62/3 41/60/3 38/59/3
f 43/63/3 38/56/3 40/58/3
f 43/63/3 42/64/3 38/56/3
f 44/65/3 41/60/3 42/62/3
f 44/66/3 42/64/3 43/63/3
f 45/67/3 37/68/3 41/69/3
f 45/70/3 41/60/3 44/65/3
f 46/71/3 47/72/3 35/53/3
f 46/73/3 37/68/3 45/67/3
f 46/71/3 35/53/3 37/55/3
f 48/74/3 47/72/3 46/71/3
f 49/75/3 50/76/3 51/77/3
f 52/78/3 50/76/3 49/75/3
f 53/79/4 54/80/4 55/81/4
f 55/81/4 54/80/4 56/82/4
f 57/83/4 58/84/4 59/85/4
f 60/86/4 61/87/4 62/88/4
f 61/89/4 63/90/4 64/91/4
f 62/88/4 61/87/4 64/92/4
f 63/93/4 57/94/4 65/95/4
f 64/91/4 63/90/4 65/96/4
f 59/85/4 66/97/4 67/98/4
f 65/95/4 57/94/4 67/99/4
f 57/83/4 59/85/4 67/98/4
f 67/98/4 66/97/4 68/100/4
f 69/101/5 70/102/5 71/103/5
f 72/104/5 70/102/5 69/101/5
f 73/105/5 74/106/5 75/107/5
f 76/108/5 74/106/5 73/105/5
f 77/109/5 78/110/5 79/111/5
f 80/112/5 78/110/5 77/109/5
f 81/113/6 82/114/6 83/115/6
f 83/115/6 82/114/6 84/116/6
f 85/117/6 86/118/6 87/119/6
f 87/119/6 86/118/6 88/120/6
