# Blender v3.1.2 OBJ File: ''
# www.blender.org
mtllib JooDeePierDer.mtl
o JooDeepier
v -0.250819 -0.609212 0.240069
v -0.250819 -0.709212 -0.359931
v -0.250819 -0.709212 0.240069
v -0.250819 -0.609212 0.140069
v -0.250819 -0.609212 -0.259931
v -0.250819 -0.609212 -0.359931
v -0.250819 -0.509212 0.240069
v -0.250819 -0.509212 0.140069
v -0.250819 -0.509212 -0.259931
v -0.250819 -0.509212 -0.359931
v -0.250819 -0.009212 0.240069
v -0.250819 -0.009212 -0.359931
v -0.150819 -0.809212 0.240069
v -0.150819 -0.909212 -0.259932
v -0.150819 -0.909212 0.240068
v -0.150819 -0.809212 -0.259931
v -0.050819 -0.809212 0.340069
v -0.050819 -0.909212 0.240068
v -0.050819 -0.909212 0.340069
v -0.050819 -0.809212 0.240069
v -0.050819 -0.809212 -0.259931
v -0.050819 -0.909212 -0.359931
v -0.050819 -0.909212 -0.259932
v -0.050819 -0.809212 -0.359931
v -0.050819 -0.709212 0.240069
v -0.050819 -0.709212 -0.259931
v 0.049181 -0.809212 0.440069
v 0.049181 -0.909212 0.340069
v 0.049181 -0.909212 0.440069
v 0.049181 -0.809212 0.340069
v 0.149181 -0.909212 0.440069
v 0.149181 -0.909212 0.340069
v 0.149181 -0.809212 0.440069
v 0.149181 -0.809212 0.340069
v 0.149181 -0.709212 0.240069
v 0.149181 -0.709212 0.140069
v 0.149181 -0.609212 0.240069
v 0.149181 -0.609212 0.140069
v 0.149181 -0.709212 -0.259931
v 0.149181 -0.709212 -0.359931
v 0.149181 -0.609212 -0.259931
v 0.149181 -0.609212 -0.359931
v 0.249181 -0.909212 0.340069
v 0.249181 -0.909212 0.240068
v 0.249181 -0.809212 0.340069
v 0.249181 -0.809212 0.240069
v 0.249181 -0.909212 -0.259932
v 0.249181 -0.909212 -0.359931
v 0.249181 -0.809212 -0.259931
v 0.249181 -0.809212 -0.359931
v 0.249181 -0.709212 0.240069
v 0.249181 -0.709212 0.140069
v 0.249181 -0.709212 -0.259931
v 0.249181 -0.609212 0.140069
v 0.249181 -0.609212 -0.059931
v 0.249181 -0.609212 -0.159931
v 0.249181 -0.609212 -0.259931
v 0.249181 -0.609212 0.240069
v 0.249181 -0.409212 0.240069
v 0.249181 -0.409212 0.040069
v 0.249181 -0.409212 -0.259931
v 0.249181 -0.609212 -0.359931
v 0.249181 -0.409212 -0.359931
v 0.249181 -0.009212 0.240069
v 0.249181 -0.009212 0.040069
v 0.249181 -0.009212 -0.059931
v 0.249181 -0.009212 -0.159931
v 0.249181 -0.009212 -0.259931
v 0.249181 -0.009212 -0.359931
v 0.349181 -0.909212 0.240068
v 0.349181 -0.909212 -0.259932
v 0.349181 -0.809212 0.240069
v 0.349181 -0.809212 -0.259931
v 0.149181 -0.909212 0.440069
v 0.049181 -0.809212 0.440069
v 0.049181 -0.909212 0.440069
v 0.149181 -0.809212 0.440069
v 0.049181 -0.909212 0.340069
v -0.050819 -0.809212 0.340069
v -0.050819 -0.909212 0.340069
v 0.049181 -0.809212 0.340069
v 0.249181 -0.909212 0.340069
v 0.149181 -0.809212 0.340069
v 0.149181 -0.909212 0.340069
v 0.249181 -0.809212 0.340069
v -0.050819 -0.909212 0.240068
v -0.150819 -0.809212 0.240069
v -0.150819 -0.909212 0.240068
v -0.050819 -0.809212 0.240069
v -0.050819 -0.709212 0.240069
v -0.250819 -0.609212 0.240069
v -0.250819 -0.709212 0.240069
v 0.049181 -0.509212 0.240069
v -0.250819 -0.509212 0.240069
v -0.250819 -0.009212 0.240069
v 0.049181 -0.409212 0.240069
v 0.149181 -0.709212 0.240069
v 0.149181 -0.609212 0.240069
v 0.249181 -0.809212 0.240069
v 0.249181 -0.709212 0.240069
v 0.249181 -0.609212 0.240069
v 0.249181 -0.409212 0.240069
v 0.249181 -0.009212 0.240069
v 0.349181 -0.909212 0.240068
v 0.249181 -0.909212 0.240068
v 0.349181 -0.809212 0.240069
v 0.249181 -0.709212 0.140069
v 0.149181 -0.609212 0.140069
v 0.149181 -0.709212 0.140069
v 0.249181 -0.609212 0.140069
v -0.150819 -0.909212 -0.259932
v -0.150819 -0.809212 -0.259931
v -0.050819 -0.909212 -0.259932
v -0.050819 -0.809212 -0.259931
v -0.050819 -0.709212 -0.259931
v 0.149181 -0.709212 -0.259931
v 0.249181 -0.809212 -0.259931
v 0.149181 -0.609212 -0.259931
v 0.249181 -0.709212 -0.259931
v 0.249181 -0.609212 -0.259931
v 0.249181 -0.909212 -0.259932
v 0.349181 -0.909212 -0.259932
v 0.349181 -0.809212 -0.259931
v -0.250819 -0.609212 -0.359931
v -0.250819 -0.509212 -0.359931
v -0.050819 -0.509212 -0.359931
v -0.250819 -0.009212 -0.359931
v -0.050819 -0.409212 -0.359931
v -0.250819 -0.709212 -0.359931
v 0.149181 -0.709212 -0.359931
v 0.149181 -0.609212 -0.359931
v -0.050819 -0.909212 -0.359931
v -0.050819 -0.809212 -0.359931
v 0.249181 -0.909212 -0.359931
v 0.249181 -0.809212 -0.359931
v 0.249181 -0.609212 -0.359931
v 0.249181 -0.409212 -0.359931
v 0.249181 -0.009212 -0.359931
v 0.049181 -0.909212 0.340069
v 0.149181 -0.909212 0.440069
v 0.049181 -0.909212 0.440069
v 0.149181 -0.909212 0.340069
v -0.050819 -0.909212 0.240068
v 0.249181 -0.909212 0.340069
v -0.050819 -0.909212 0.340069
v 0.249181 -0.909212 0.240068
v -0.150819 -0.909212 -0.259932
v 0.349181 -0.909212 0.240068
v -0.150819 -0.909212 0.240068
v -0.050819 -0.909212 -0.259932
v 0.249181 -0.909212 -0.259932
v 0.349181 -0.909212 -0.259932
v -0.050819 -0.909212 -0.359931
v 0.249181 -0.909212 -0.359931
v -0.050819 -0.709212 -0.259931
v -0.050819 -0.709212 0.240069
v -0.250819 -0.709212 0.240069
v -0.250819 -0.709212 -0.359931
v 0.149181 -0.709212 -0.259931
v 0.149181 -0.709212 -0.359931
v 0.149181 -0.609212 0.140069
v 0.249181 -0.609212 0.240069
v 0.149181 -0.609212 0.240069
v 0.249181 -0.609212 0.140069
v 0.149181 -0.609212 -0.359931
v 0.249181 -0.609212 -0.259931
v 0.149181 -0.609212 -0.259931
v 0.249181 -0.609212 -0.359931
v 0.049181 -0.809212 0.440069
v 0.149181 -0.809212 0.440069
v 0.049181 -0.809212 0.340069
v 0.149181 -0.809212 0.340069
v 0.249181 -0.809212 0.340069
v -0.050819 -0.809212 0.240069
v -0.050819 -0.809212 0.340069
v 0.249181 -0.809212 0.240069
v -0.150819 -0.809212 0.240069
v -0.150819 -0.809212 -0.259931
v -0.050819 -0.809212 -0.259931
v 0.349181 -0.809212 0.240069
v 0.249181 -0.809212 -0.259931
v 0.349181 -0.809212 -0.259931
v -0.050819 -0.809212 -0.359931
v 0.249181 -0.809212 -0.359931
v 0.149181 -0.709212 0.240069
v 0.249181 -0.709212 0.240069
v 0.149181 -0.709212 0.140069
v 0.249181 -0.709212 0.140069
v -0.250819 -0.009212 0.240069
v 0.249181 -0.009212 0.240069
v 0.149181 -0.009212 0.040069
v 0.249181 -0.009212 0.040069
v 0.149181 -0.009212 -0.059931
v 0.249181 -0.009212 -0.059931
v 0.149181 -0.009212 -0.159931
v 0.249181 -0.009212 -0.159931
v 0.149181 -0.009212 -0.259931
v 0.249181 -0.009212 -0.259931
v -0.250819 -0.009212 -0.359931
v 0.249181 -0.009212 -0.359931
vt 0.912109 0.500000
vt 0.912109 0.500000
vt 0.912109 0.500000
vt 0.912109 0.500000
vt 0.912109 0.500000
vt 0.912109 0.500000
vt 0.994141 0.500000
vt 0.994141 0.500000
vt 0.994141 0.500000
vt 0.228516 0.500000
vt 0.228516 0.500000
vt 0.228516 0.500000
vt 0.994141 0.500000
vt 0.994141 0.500000
vt 0.994141 0.500000
vt 0.994141 0.500000
vt 0.228516 0.500000
vt 0.994141 0.500000
vt 0.228516 0.500000
vt 0.228516 0.500000
vt 0.228516 0.500000
vt 0.228516 0.500000
vt 0.994141 0.500000
vt 0.994141 0.500000
vt 0.994141 0.500000
vt 0.994141 0.500000
vt 0.994141 0.500000
vt 0.994141 0.500000
vt 0.994141 0.500000
vt 0.994141 0.500000
vt 0.994141 0.500000
vt 0.994141 0.500000
vt 0.994141 0.500000
vt 0.994141 0.500000
vt 0.994141 0.500000
vt 0.994141 0.500000
vt 0.017578 0.500000
vt 0.017578 0.500000
vt 0.017578 0.500000
vt 0.017578 0.500000
vt 0.017578 0.500000
vt 0.017578 0.500000
vt 0.017578 0.500000
vt 0.017578 0.500000
vt 0.912109 0.500000
vt 0.912109 0.500000
vt 0.912109 0.500000
vt 0.912109 0.500000
vt 0.912109 0.500000
vt 0.912109 0.500000
vt 0.912109 0.500000
vt 0.912109 0.500000
vt 0.994141 0.500000
vt 0.994141 0.500000
vt 0.994141 0.500000
vt 0.994141 0.500000
vt 0.994141 0.500000
vt 0.994141 0.500000
vt 0.994141 0.500000
vt 0.994141 0.500000
vt 0.994141 0.500000
vt 0.994141 0.500000
vt 0.994141 0.500000
vt 0.912109 0.500000
vt 0.912109 0.500000
vt 0.912109 0.500000
vt 0.912109 0.500000
vt 0.912109 0.500000
vt 0.912109 0.500000
vt 0.994141 0.500000
vt 0.994141 0.500000
vt 0.994141 0.500000
vt 0.994141 0.500000
vt 0.994141 0.500000
vt 0.994141 0.500000
vt 0.994141 0.500000
vt 0.994141 0.500000
vt 0.994141 0.500000
vt 0.994141 0.500000
vt 0.228516 0.500000
vt 0.228516 0.500000
vt 0.228516 0.500000
vt 0.994141 0.500000
vt 0.228516 0.500000
vt 0.912109 0.500000
vt 0.994141 0.500000
vt 0.994141 0.500000
vt 0.912109 0.500000
vt 0.228516 0.500000
vt 0.228516 0.500000
vt 0.228516 0.500000
vt 0.994141 0.500000
vt 0.228516 0.500000
vt 0.994141 0.500000
vt 0.994141 0.500000
vt 0.994141 0.500000
vt 0.994141 0.500000
vt 0.017578 0.500000
vt 0.017578 0.500000
vt 0.017578 0.500000
vt 0.017578 0.500000
vt 0.994141 0.500000
vt 0.994141 0.500000
vt 0.994141 0.500000
vt 0.994141 0.500000
vt 0.994141 0.500000
vt 0.994141 0.500000
vt 0.994141 0.500000
vt 0.994141 0.500000
vt 0.994141 0.500000
vt 0.994141 0.500000
vt 0.994141 0.500000
vt 0.994141 0.500000
vt 0.912109 0.500000
vt 0.912109 0.500000
vt 0.912109 0.500000
vt 0.994141 0.500000
vt 0.994141 0.500000
vt 0.994141 0.500000
vt 0.228516 0.500000
vt 0.228516 0.500000
vt 0.228516 0.500000
vt 0.228516 0.500000
vt 0.994141 0.500000
vt 0.994141 0.500000
vt 0.912109 0.500000
vt 0.994141 0.500000
vt 0.994141 0.500000
vt 0.912109 0.500000
vt 0.994141 0.500000
vt 0.994141 0.500000
vt 0.994141 0.500000
vt 0.228516 0.500000
vt 0.994141 0.500000
vt 0.228516 0.500000
vt 0.994141 0.500000
vt 0.994141 0.500000
vt 0.994141 0.500000
vt 0.912109 0.500000
vt 0.912109 0.500000
vt 0.912109 0.500000
vt 0.912109 0.500000
vt 0.994141 0.500000
vt 0.994141 0.500000
vt 0.994141 0.500000
vt 0.994141 0.500000
vt 0.994141 0.500000
vt 0.994141 0.500000
vt 0.994141 0.500000
vt 0.912109 0.500000
vt 0.912109 0.500000
vt 0.912109 0.500000
vt 0.994141 0.500000
vt 0.912109 0.500000
vt 0.994141 0.500000
vt 0.994141 0.500000
vt 0.994141 0.500000
vt 0.994141 0.500000
vt 0.994141 0.500000
vt 0.994141 0.500000
vt 0.228516 0.500000
vt 0.228516 0.500000
vt 0.228516 0.500000
vt 0.228516 0.500000
vt 0.912109 0.500000
vt 0.912109 0.500000
vt 0.912109 0.500000
vt 0.994141 0.500000
vt 0.912109 0.500000
vt 0.994141 0.500000
vt 0.994141 0.500000
vt 0.994141 0.500000
vt 0.994141 0.500000
vt 0.994141 0.500000
vt 0.994141 0.500000
vt 0.228516 0.500000
vt 0.994141 0.500000
vt 0.228516 0.500000
vt 0.017578 0.500000
vt 0.017578 0.500000
vt 0.017578 0.500000
vt 0.017578 0.500000
vt 0.994141 0.500000
vt 0.994141 0.500000
vt 0.994141 0.500000
vt 0.994141 0.500000
vt 0.994141 0.500000
vt 0.994141 0.500000
vt 0.994141 0.500000
vt 0.994141 0.500000
vt 0.994141 0.500000
vt 0.994141 0.500000
vt 0.994141 0.500000
vt 0.994141 0.500000
vt 0.994141 0.500000
vt 0.994141 0.500000
vt 0.912109 0.500000
vt 0.912109 0.500000
vt 0.912109 0.500000
vt 0.912109 0.500000
vt 0.912109 0.500000
vt 0.912109 0.500000
vt 0.994141 0.500000
vt 0.994141 0.500000
vt 0.994141 0.500000
vt 0.994141 0.500000
vt 0.994141 0.500000
vt 0.994141 0.500000
vt 0.994141 0.500000
vt 0.994141 0.500000
vt 0.017578 0.500000
vt 0.017578 0.500000
vt 0.017578 0.500000
vt 0.017578 0.500000
vt 0.994141 0.500000
vt 0.994141 0.500000
vt 0.994141 0.500000
vt 0.994141 0.500000
vt 0.994141 0.500000
vt 0.994141 0.500000
vt 0.994141 0.500000
vt 0.994141 0.500000
vt 0.994141 0.500000
vt 0.994141 0.500000
vt 0.994141 0.500000
vt 0.994141 0.500000
vt 0.994141 0.500000
vt 0.994141 0.500000
vt 0.994141 0.500000
vt 0.994141 0.500000
vt 0.994141 0.500000
vt 0.994141 0.500000
vt 0.228516 0.500000
vt 0.228516 0.500000
vt 0.228516 0.500000
vt 0.228516 0.500000
vt 0.228516 0.500000
vt 0.994141 0.500000
vt 0.994141 0.500000
vt 0.994141 0.500000
vt 0.994141 0.500000
vt 0.228516 0.500000
vt 0.912109 0.500000
vt 0.912109 0.500000
vt 0.912109 0.500000
vt 0.912109 0.500000
vt 0.228516 0.500000
vt 0.994141 0.500000
vt 0.994141 0.500000
vt 0.994141 0.500000
vt 0.994141 0.500000
vt 0.228516 0.500000
vt 0.228516 0.500000
vt 0.228516 0.500000
vn -1.0000 0.0000 0.0000
vn 1.0000 0.0000 0.0000
vn 0.0000 -0.0000 1.0000
vn 0.0000 0.0000 -1.0000
vn 0.0000 -1.0000 0.0000
vn 0.0000 1.0000 0.0000
usemtl palette.005
s 1
f 1/1/1 2/2/1 3/3/1
f 4/4/1 2/2/1 1/1/1
f 5/5/1 2/2/1 4/4/1
f 6/6/1 2/2/1 5/5/1
f 7/7/1 4/8/1 1/9/1
f 8/10/1 5/11/1 4/12/1
f 8/13/1 4/8/1 7/7/1
f 9/14/1 6/15/1 5/16/1
f 9/17/1 5/11/1 8/10/1
f 10/18/1 6/15/1 9/14/1
f 11/19/1 8/10/1 7/20/1
f 11/19/1 9/17/1 8/10/1
f 11/19/1 10/21/1 9/17/1
f 12/22/1 10/21/1 11/19/1
f 13/23/1 14/24/1 15/25/1
f 16/26/1 14/24/1 13/23/1
f 17/27/1 18/28/1 19/29/1
f 20/30/1 18/28/1 17/27/1
f 21/31/1 22/32/1 23/33/1
f 24/34/1 22/32/1 21/31/1
f 25/35/1 21/31/1 20/30/1
f 26/36/1 21/31/1 25/35/1
f 27/37/1 28/38/1 29/39/1
f 30/40/1 28/38/1 27/37/1
f 31/41/2 32/42/2 33/43/2
f 33/43/2 32/42/2 34/44/2
f 35/45/2 36/46/2 37/47/2
f 37/47/2 36/46/2 38/48/2
f 39/49/2 40/50/2 41/51/2
f 41/51/2 40/50/2 42/52/2
f 43/53/2 44/54/2 45/55/2
f 45/55/2 44/54/2 46/56/2
f 47/57/2 48/58/2 49/59/2
f 49/59/2 48/58/2 50/60/2
f 46/56/2 49/59/2 51/61/2
f 51/61/2 49/59/2 52/62/2
f 52/62/2 49/59/2 53/63/2
f 52/64/2 53/65/2 54/66/2
f 54/66/2 53/65/2 55/67/2
f 55/67/2 53/65/2 56/68/2
f 56/68/2 53/65/2 57/69/2
f 58/70/2 54/71/2 59/72/2
f 54/71/2 55/73/2 59/72/2
f 59/72/2 55/73/2 60/74/2
f 56/75/2 57/76/2 61/77/2
f 57/76/2 62/78/2 61/77/2
f 61/77/2 62/78/2 63/79/2
f 59/80/2 60/81/2 64/82/2
f 60/74/2 55/73/2 65/83/2
f 64/82/2 60/81/2 65/84/2
f 55/67/2 56/68/2 66/85/2
f 65/83/2 55/73/2 66/86/2
f 56/75/2 61/77/2 67/87/2
f 66/85/2 56/68/2 67/88/2
f 61/89/2 63/90/2 68/91/2
f 67/87/2 61/77/2 68/92/2
f 68/91/2 63/90/2 69/93/2
f 70/94/2 71/95/2 72/96/2
f 72/96/2 71/95/2 73/97/2
f 74/98/3 75/99/3 76/100/3
f 77/101/3 75/99/3 74/98/3
f 78/102/3 79/103/3 80/104/3
f 81/105/3 79/103/3 78/102/3
f 82/106/3 83/107/3 84/108/3
f 85/109/3 83/107/3 82/106/3
f 86/110/3 87/111/3 88/112/3
f 89/113/3 87/111/3 86/110/3
f 90/114/3 91/115/3 92/116/3
f 93/117/3 94/118/3 91/119/3
f 93/120/3 95/121/3 94/122/3
f 96/123/3 95/121/3 93/120/3
f 97/124/3 90/125/3 89/113/3
f 97/126/3 91/115/3 90/114/3
f 98/127/3 96/128/3 93/117/3
f 98/129/3 91/115/3 97/126/3
f 98/127/3 93/117/3 91/119/3
f 99/130/3 97/124/3 89/113/3
f 100/131/3 97/124/3 99/130/3
f 101/132/3 96/128/3 98/127/3
f 102/133/3 95/121/3 96/123/3
f 102/134/3 96/128/3 101/132/3
f 103/135/3 95/121/3 102/133/3
f 104/136/3 99/130/3 105/137/3
f 106/138/3 99/130/3 104/136/3
f 107/139/3 108/140/3 109/141/3
f 110/142/3 108/140/3 107/139/3
f 111/143/4 112/144/4 113/145/4
f 113/145/4 112/144/4 114/146/4
f 114/146/4 115/147/4 116/148/4
f 114/146/4 116/148/4 117/149/4
f 116/150/4 118/151/4 119/152/4
f 117/149/4 116/148/4 119/153/4
f 119/152/4 118/151/4 120/154/4
f 121/155/4 117/149/4 122/156/4
f 122/156/4 117/149/4 123/157/4
f 124/158/4 125/159/4 126/160/4
f 125/161/4 127/162/4 126/163/4
f 126/163/4 127/162/4 128/164/4
f 129/165/4 124/166/4 130/167/4
f 124/158/4 126/160/4 131/168/4
f 130/167/4 124/166/4 131/169/4
f 126/160/4 128/170/4 131/168/4
f 132/171/4 133/172/4 134/173/4
f 134/173/4 133/172/4 135/174/4
f 131/168/4 128/170/4 136/175/4
f 128/164/4 127/162/4 137/176/4
f 136/175/4 128/170/4 137/177/4
f 137/176/4 127/162/4 138/178/4
f 139/179/5 140/180/5 141/181/5
f 142/182/5 140/180/5 139/179/5
f 143/183/5 144/184/5 142/185/5
f 143/183/5 142/185/5 139/186/5
f 143/183/5 139/186/5 145/187/5
f 146/188/5 144/184/5 143/183/5
f 147/189/5 148/190/5 146/188/5
f 147/189/5 146/188/5 143/183/5
f 147/189/5 143/183/5 149/191/5
f 150/192/5 148/190/5 147/189/5
f 151/193/5 148/190/5 150/192/5
f 152/194/5 148/190/5 151/193/5
f 153/195/5 151/193/5 150/192/5
f 154/196/5 151/193/5 153/195/5
f 155/197/5 156/198/5 157/199/5
f 158/200/5 159/201/5 155/197/5
f 158/200/5 155/197/5 157/199/5
f 160/202/5 159/201/5 158/200/5
f 161/203/5 162/204/5 163/205/5
f 164/206/5 162/204/5 161/203/5
f 165/207/5 166/208/5 167/209/5
f 168/210/5 166/208/5 165/207/5
f 169/211/6 170/212/6 171/213/6
f 171/213/6 170/212/6 172/214/6
f 172/215/6 173/216/6 174/217/6
f 171/218/6 172/215/6 174/217/6
f 175/219/6 171/218/6 174/217/6
f 174/217/6 173/216/6 176/220/6
f 177/221/6 174/217/6 178/222/6
f 178/222/6 174/217/6 179/223/6
f 176/220/6 180/224/6 181/225/6
f 181/225/6 180/224/6 182/226/6
f 179/223/6 181/225/6 183/227/6
f 183/227/6 181/225/6 184/228/6
f 185/229/6 186/230/6 187/231/6
f 187/231/6 186/230/6 188/232/6
f 189/233/6 190/234/6 191/235/6
f 191/235/6 190/234/6 192/236/6
f 189/233/6 191/235/6 193/237/6
f 191/238/6 192/239/6 193/240/6
f 193/240/6 192/239/6 194/241/6
f 189/233/6 193/237/6 195/242/6
f 193/243/6 194/244/6 195/245/6
f 195/245/6 194/244/6 196/246/6
f 189/233/6 195/242/6 197/247/6
f 195/248/6 196/249/6 197/250/6
f 197/250/6 196/249/6 198/251/6
f 189/233/6 197/247/6 199/252/6
f 197/247/6 198/253/6 199/252/6
f 199/252/6 198/253/6 200/254/6
