# Blender v3.1.2 OBJ File: ''
# www.blender.org
mtllib JooDeePierIzq.mtl
o JooDeepier.001
v -0.334952 -0.797376 0.359110
v -0.334952 -0.897376 -0.140890
v -0.334952 -0.897376 0.359110
v -0.334952 -0.797376 -0.140890
v -0.234952 -0.797376 0.459110
v -0.234952 -0.897376 0.359110
v -0.234952 -0.897376 0.459110
v -0.234952 -0.797376 0.359110
v -0.234952 -0.797376 -0.140890
v -0.234952 -0.897376 -0.240890
v -0.234952 -0.897376 -0.140890
v -0.234952 -0.797376 -0.240890
v -0.234952 -0.697376 0.359110
v -0.234952 -0.697376 0.259110
v -0.234952 -0.697376 -0.140890
v -0.234952 -0.597376 0.259110
v -0.234952 -0.597376 0.059110
v -0.234952 -0.597376 -0.040890
v -0.234952 -0.597376 -0.140890
v -0.234952 -0.397376 0.359110
v -0.234952 -0.597376 0.359110
v -0.234952 -0.397376 0.159110
v -0.234952 -0.397376 -0.140890
v -0.234952 -0.597376 -0.240890
v -0.234952 -0.397376 -0.240890
v -0.234952 0.002624 0.359110
v -0.234952 0.002624 0.159110
v -0.234952 0.002624 0.059110
v -0.234952 0.002624 -0.040890
v -0.234952 0.002624 -0.140890
v -0.234952 0.002624 -0.240890
v -0.134952 -0.797376 0.559110
v -0.134952 -0.897376 0.459110
v -0.134952 -0.897376 0.559110
v -0.134952 -0.797376 0.459110
v -0.134952 -0.597376 0.359110
v -0.134952 -0.697376 0.259110
v -0.134952 -0.697376 0.359110
v -0.134952 -0.597376 0.259110
v -0.134952 -0.597376 -0.140890
v -0.134952 -0.697376 -0.240890
v -0.134952 -0.697376 -0.140890
v -0.134952 -0.597376 -0.240890
v -0.034952 -0.897376 0.559110
v -0.034952 -0.897376 0.459110
v -0.034952 -0.797376 0.559110
v -0.034952 -0.797376 0.459110
v 0.065048 -0.897376 0.459110
v 0.065048 -0.897376 0.359110
v 0.065048 -0.797376 0.459110
v 0.065048 -0.797376 0.359110
v 0.065048 -0.897376 -0.140890
v 0.065048 -0.897376 -0.240890
v 0.065048 -0.797376 -0.140890
v 0.065048 -0.797376 -0.240890
v 0.065048 -0.697376 0.359110
v 0.065048 -0.697376 -0.140890
v 0.165048 -0.897376 0.359110
v 0.165048 -0.897376 -0.140890
v 0.165048 -0.797376 0.359110
v 0.165048 -0.797376 -0.140890
v 0.265048 -0.697376 0.359110
v 0.265048 -0.697376 -0.240890
v 0.265048 -0.597376 0.359110
v 0.265048 -0.597376 0.259110
v 0.265048 -0.597376 -0.140890
v 0.265048 -0.597376 -0.240890
v 0.265048 -0.497376 0.359110
v 0.265048 -0.497376 0.259110
v 0.265048 -0.497376 -0.140890
v 0.265048 -0.497376 -0.240890
v 0.265048 0.002624 0.359110
v 0.265048 0.002624 -0.240890
v -0.034952 -0.897376 0.559110
v -0.134952 -0.797376 0.559110
v -0.134952 -0.897376 0.559110
v -0.034952 -0.797376 0.559110
v -0.134952 -0.897376 0.459110
v -0.234952 -0.797376 0.459110
v -0.234952 -0.897376 0.459110
v -0.134952 -0.797376 0.459110
v 0.065048 -0.897376 0.459110
v -0.034952 -0.797376 0.459110
v -0.034952 -0.897376 0.459110
v 0.065048 -0.797376 0.459110
v -0.234952 -0.897376 0.359110
v -0.334952 -0.797376 0.359110
v -0.334952 -0.897376 0.359110
v -0.234952 -0.797376 0.359110
v -0.134952 -0.697376 0.359110
v -0.234952 -0.697376 0.359110
v -0.134952 -0.597376 0.359110
v -0.234952 -0.397376 0.359110
v -0.234952 -0.597376 0.359110
v -0.034952 -0.497376 0.359110
v -0.034952 -0.397376 0.359110
v -0.234952 0.002624 0.359110
v 0.065048 -0.797376 0.359110
v 0.065048 -0.697376 0.359110
v 0.165048 -0.897376 0.359110
v 0.065048 -0.897376 0.359110
v 0.165048 -0.797376 0.359110
v 0.265048 -0.697376 0.359110
v 0.265048 -0.597376 0.359110
v 0.265048 -0.497376 0.359110
v 0.265048 0.002624 0.359110
v -0.134952 -0.697376 0.259110
v -0.234952 -0.597376 0.259110
v -0.234952 -0.697376 0.259110
v -0.134952 -0.597376 0.259110
v -0.334952 -0.897376 -0.140890
v -0.334952 -0.797376 -0.140890
v -0.234952 -0.897376 -0.140890
v -0.234952 -0.797376 -0.140890
v -0.234952 -0.697376 -0.140890
v -0.234952 -0.597376 -0.140890
v -0.134952 -0.697376 -0.140890
v -0.134952 -0.597376 -0.140890
v 0.065048 -0.797376 -0.140890
v 0.065048 -0.697376 -0.140890
v 0.065048 -0.897376 -0.140890
v 0.165048 -0.897376 -0.140890
v 0.165048 -0.797376 -0.140890
v -0.234952 -0.597376 -0.240890
v -0.234952 -0.397376 -0.240890
v -0.134952 -0.597376 -0.240890
v -0.234952 -0.897376 -0.240890
v -0.234952 -0.797376 -0.240890
v 0.065048 -0.897376 -0.240890
v 0.065048 -0.797376 -0.240890
v 0.065048 -0.497376 -0.240890
v -0.234952 0.002624 -0.240890
v 0.065048 -0.397376 -0.240890
v -0.134952 -0.697376 -0.240890
v 0.265048 -0.697376 -0.240890
v 0.265048 -0.597376 -0.240890
v 0.265048 -0.497376 -0.240890
v 0.265048 0.002624 -0.240890
v -0.134952 -0.897376 0.459110
v -0.034952 -0.897376 0.559110
v -0.134952 -0.897376 0.559110
v -0.034952 -0.897376 0.459110
v -0.234952 -0.897376 0.359110
v 0.065048 -0.897376 0.459110
v -0.234952 -0.897376 0.459110
v 0.065048 -0.897376 0.359110
v -0.334952 -0.897376 -0.140890
v 0.165048 -0.897376 0.359110
v -0.334952 -0.897376 0.359110
v -0.234952 -0.897376 -0.140890
v 0.065048 -0.897376 -0.140890
v 0.165048 -0.897376 -0.140890
v -0.234952 -0.897376 -0.240890
v 0.065048 -0.897376 -0.240890
v 0.065048 -0.697376 -0.140890
v 0.265048 -0.697376 0.359110
v 0.065048 -0.697376 0.359110
v -0.134952 -0.697376 -0.240890
v -0.134952 -0.697376 -0.140890
v 0.265048 -0.697376 -0.240890
v -0.234952 -0.597376 0.259110
v -0.134952 -0.597376 0.359110
v -0.234952 -0.597376 0.359110
v -0.134952 -0.597376 0.259110
v -0.234952 -0.597376 -0.240890
v -0.134952 -0.597376 -0.140890
v -0.234952 -0.597376 -0.140890
v -0.134952 -0.597376 -0.240890
v -0.134952 -0.797376 0.559110
v -0.034952 -0.797376 0.559110
v -0.134952 -0.797376 0.459110
v -0.034952 -0.797376 0.459110
v 0.065048 -0.797376 0.459110
v -0.234952 -0.797376 0.359110
v -0.234952 -0.797376 0.459110
v 0.065048 -0.797376 0.359110
v -0.334952 -0.797376 0.359110
v -0.334952 -0.797376 -0.140890
v -0.234952 -0.797376 -0.140890
v 0.165048 -0.797376 0.359110
v 0.065048 -0.797376 -0.140890
v 0.165048 -0.797376 -0.140890
v -0.234952 -0.797376 -0.240890
v 0.065048 -0.797376 -0.240890
v -0.234952 -0.697376 0.359110
v -0.134952 -0.697376 0.359110
v -0.234952 -0.697376 0.259110
v -0.134952 -0.697376 0.259110
v -0.234952 0.002624 0.359110
v 0.265048 0.002624 0.359110
v -0.234952 0.002624 0.159110
v -0.134952 0.002624 0.159110
v -0.234952 0.002624 0.059110
v -0.134952 0.002624 0.059110
v -0.234952 0.002624 -0.040890
v -0.134952 0.002624 -0.040890
v -0.234952 0.002624 -0.140890
v -0.134952 0.002624 -0.140890
v -0.234952 0.002624 -0.240890
v 0.265048 0.002624 -0.240890
vt 0.994141 0.500000
vt 0.994141 0.500000
vt 0.994141 0.500000
vt 0.994141 0.500000
vt 0.994141 0.500000
vt 0.994141 0.500000
vt 0.994141 0.500000
vt 0.994141 0.500000
vt 0.994141 0.500000
vt 0.994141 0.500000
vt 0.994141 0.500000
vt 0.994141 0.500000
vt 0.994141 0.500000
vt 0.994141 0.500000
vt 0.994141 0.500000
vt 0.912109 0.500000
vt 0.912109 0.500000
vt 0.912109 0.500000
vt 0.912109 0.500000
vt 0.912109 0.500000
vt 0.912109 0.500000
vt 0.994141 0.500000
vt 0.994141 0.500000
vt 0.994141 0.500000
vt 0.994141 0.500000
vt 0.994141 0.500000
vt 0.994141 0.500000
vt 0.994141 0.500000
vt 0.994141 0.500000
vt 0.994141 0.500000
vt 0.994141 0.500000
vt 0.228516 0.500000
vt 0.228516 0.500000
vt 0.228516 0.500000
vt 0.994141 0.500000
vt 0.228516 0.500000
vt 0.912109 0.500000
vt 0.994141 0.500000
vt 0.994141 0.500000
vt 0.912109 0.500000
vt 0.228516 0.500000
vt 0.228516 0.500000
vt 0.228516 0.500000
vt 0.994141 0.500000
vt 0.228516 0.500000
vt 0.017578 0.500000
vt 0.017578 0.500000
vt 0.017578 0.500000
vt 0.017578 0.500000
vt 0.912109 0.500000
vt 0.912109 0.500000
vt 0.912109 0.500000
vt 0.912109 0.500000
vt 0.912109 0.500000
vt 0.912109 0.500000
vt 0.912109 0.500000
vt 0.912109 0.500000
vt 0.017578 0.500000
vt 0.017578 0.500000
vt 0.017578 0.500000
vt 0.017578 0.500000
vt 0.994141 0.500000
vt 0.994141 0.500000
vt 0.994141 0.500000
vt 0.994141 0.500000
vt 0.994141 0.500000
vt 0.994141 0.500000
vt 0.994141 0.500000
vt 0.994141 0.500000
vt 0.994141 0.500000
vt 0.994141 0.500000
vt 0.994141 0.500000
vt 0.994141 0.500000
vt 0.994141 0.500000
vt 0.994141 0.500000
vt 0.912109 0.500000
vt 0.912109 0.500000
vt 0.912109 0.500000
vt 0.912109 0.500000
vt 0.912109 0.500000
vt 0.912109 0.500000
vt 0.994141 0.500000
vt 0.994141 0.500000
vt 0.994141 0.500000
vt 0.228516 0.500000
vt 0.228516 0.500000
vt 0.228516 0.500000
vt 0.994141 0.500000
vt 0.994141 0.500000
vt 0.994141 0.500000
vt 0.994141 0.500000
vt 0.228516 0.500000
vt 0.994141 0.500000
vt 0.228516 0.500000
vt 0.228516 0.500000
vt 0.228516 0.500000
vt 0.228516 0.500000
vt 0.017578 0.500000
vt 0.017578 0.500000
vt 0.017578 0.500000
vt 0.017578 0.500000
vt 0.994141 0.500000
vt 0.994141 0.500000
vt 0.994141 0.500000
vt 0.994141 0.500000
vt 0.994141 0.500000
vt 0.994141 0.500000
vt 0.994141 0.500000
vt 0.994141 0.500000
vt 0.994141 0.500000
vt 0.994141 0.500000
vt 0.994141 0.500000
vt 0.994141 0.500000
vt 0.994141 0.500000
vt 0.994141 0.500000
vt 0.994141 0.500000
vt 0.994141 0.500000
vt 0.994141 0.500000
vt 0.994141 0.500000
vt 0.228516 0.500000
vt 0.228516 0.500000
vt 0.228516 0.500000
vt 0.994141 0.500000
vt 0.994141 0.500000
vt 0.912109 0.500000
vt 0.912109 0.500000
vt 0.912109 0.500000
vt 0.994141 0.500000
vt 0.994141 0.500000
vt 0.994141 0.500000
vt 0.994141 0.500000
vt 0.912109 0.500000
vt 0.994141 0.500000
vt 0.912109 0.500000
vt 0.228516 0.500000
vt 0.228516 0.500000
vt 0.994141 0.500000
vt 0.228516 0.500000
vt 0.912109 0.500000
vt 0.912109 0.500000
vt 0.912109 0.500000
vt 0.912109 0.500000
vt 0.994141 0.500000
vt 0.994141 0.500000
vt 0.994141 0.500000
vt 0.994141 0.500000
vt 0.912109 0.500000
vt 0.912109 0.500000
vt 0.912109 0.500000
vt 0.994141 0.500000
vt 0.994141 0.500000
vt 0.912109 0.500000
vt 0.994141 0.500000
vt 0.994141 0.500000
vt 0.994141 0.500000
vt 0.994141 0.500000
vt 0.994141 0.500000
vt 0.994141 0.500000
vt 0.994141 0.500000
vt 0.994141 0.500000
vt 0.994141 0.500000
vt 0.994141 0.500000
vt 0.994141 0.500000
vt 0.994141 0.500000
vt 0.994141 0.500000
vt 0.228516 0.500000
vt 0.228516 0.500000
vt 0.228516 0.500000
vt 0.994141 0.500000
vt 0.912109 0.500000
vt 0.912109 0.500000
vt 0.912109 0.500000
vt 0.994141 0.500000
vt 0.912109 0.500000
vt 0.228516 0.500000
vt 0.228516 0.500000
vt 0.994141 0.500000
vt 0.228516 0.500000
vt 0.017578 0.500000
vt 0.017578 0.500000
vt 0.017578 0.500000
vt 0.017578 0.500000
vt 0.994141 0.500000
vt 0.994141 0.500000
vt 0.994141 0.500000
vt 0.994141 0.500000
vt 0.994141 0.500000
vt 0.994141 0.500000
vt 0.994141 0.500000
vt 0.994141 0.500000
vt 0.994141 0.500000
vt 0.994141 0.500000
vt 0.994141 0.500000
vt 0.994141 0.500000
vt 0.994141 0.500000
vt 0.994141 0.500000
vt 0.912109 0.500000
vt 0.912109 0.500000
vt 0.912109 0.500000
vt 0.912109 0.500000
vt 0.912109 0.500000
vt 0.912109 0.500000
vt 0.994141 0.500000
vt 0.994141 0.500000
vt 0.994141 0.500000
vt 0.994141 0.500000
vt 0.994141 0.500000
vt 0.994141 0.500000
vt 0.994141 0.500000
vt 0.994141 0.500000
vt 0.017578 0.500000
vt 0.017578 0.500000
vt 0.017578 0.500000
vt 0.017578 0.500000
vt 0.994141 0.500000
vt 0.994141 0.500000
vt 0.994141 0.500000
vt 0.994141 0.500000
vt 0.994141 0.500000
vt 0.994141 0.500000
vt 0.994141 0.500000
vt 0.994141 0.500000
vt 0.994141 0.500000
vt 0.994141 0.500000
vt 0.994141 0.500000
vt 0.994141 0.500000
vt 0.994141 0.500000
vt 0.994141 0.500000
vt 0.994141 0.500000
vt 0.994141 0.500000
vt 0.994141 0.500000
vt 0.994141 0.500000
vt 0.228516 0.500000
vt 0.228516 0.500000
vt 0.228516 0.500000
vt 0.228516 0.500000
vt 0.994141 0.500000
vt 0.994141 0.500000
vt 0.994141 0.500000
vt 0.228516 0.500000
vt 0.994141 0.500000
vt 0.912109 0.500000
vt 0.912109 0.500000
vt 0.912109 0.500000
vt 0.228516 0.500000
vt 0.912109 0.500000
vt 0.994141 0.500000
vt 0.994141 0.500000
vt 0.994141 0.500000
vt 0.228516 0.500000
vt 0.994141 0.500000
vt 0.228516 0.500000
vt 0.228516 0.500000
vt 0.228516 0.500000
vn -1.0000 0.0000 0.0000
vn 1.0000 0.0000 0.0000
vn 0.0000 0.0000 1.0000
vn 0.0000 0.0000 -1.0000
vn 0.0000 -1.0000 -0.0000
vn 0.0000 1.0000 0.0000
usemtl palette.006
s 1
f 1/1/1 2/2/1 3/3/1
f 4/4/1 2/2/1 1/1/1
f 5/5/1 6/6/1 7/7/1
f 8/8/1 6/6/1 5/5/1
f 9/9/1 10/10/1 11/11/1
f 12/12/1 10/10/1 9/9/1
f 13/13/1 9/9/1 8/8/1
f 14/14/1 9/9/1 13/13/1
f 15/15/1 9/9/1 14/14/1
f 16/16/1 15/17/1 14/18/1
f 17/19/1 15/17/1 16/16/1
f 18/20/1 15/17/1 17/19/1
f 19/21/1 15/17/1 18/20/1
f 20/22/1 16/23/1 21/24/1
f 20/22/1 17/25/1 16/23/1
f 22/26/1 17/25/1 20/22/1
f 23/27/1 19/28/1 18/29/1
f 23/27/1 24/30/1 19/28/1
f 25/31/1 24/30/1 23/27/1
f 26/32/1 22/33/1 20/34/1
f 27/35/1 17/25/1 22/26/1
f 27/36/1 22/33/1 26/32/1
f 28/37/1 18/20/1 17/19/1
f 28/38/1 17/25/1 27/35/1
f 29/39/1 23/27/1 18/29/1
f 29/40/1 18/20/1 28/37/1
f 30/41/1 25/42/1 23/43/1
f 30/44/1 23/27/1 29/39/1
f 31/45/1 25/42/1 30/41/1
f 32/46/1 33/47/1 34/48/1
f 35/49/1 33/47/1 32/46/1
f 36/50/1 37/51/1 38/52/1
f 39/53/1 37/51/1 36/50/1
f 40/54/1 41/55/1 42/56/1
f 43/57/1 41/55/1 40/54/1
f 44/58/2 45/59/2 46/60/2
f 46/60/2 45/59/2 47/61/2
f 48/62/2 49/63/2 50/64/2
f 50/64/2 49/63/2 51/65/2
f 52/66/2 53/67/2 54/68/2
f 54/68/2 53/67/2 55/69/2
f 51/65/2 54/68/2 56/70/2
f 56/70/2 54/68/2 57/71/2
f 58/72/2 59/73/2 60/74/2
f 60/74/2 59/73/2 61/75/2
f 62/76/2 63/77/2 64/78/2
f 64/78/2 63/77/2 65/79/2
f 65/79/2 63/77/2 66/80/2
f 66/80/2 63/77/2 67/81/2
f 64/82/2 65/83/2 68/84/2
f 65/85/2 66/86/2 69/87/2
f 68/84/2 65/83/2 69/88/2
f 66/89/2 67/90/2 70/91/2
f 69/87/2 66/86/2 70/92/2
f 70/91/2 67/90/2 71/93/2
f 68/94/2 69/87/2 72/95/2
f 69/87/2 70/92/2 72/95/2
f 70/92/2 71/96/2 72/95/2
f 72/95/2 71/96/2 73/97/2
f 74/98/3 75/99/3 76/100/3
f 77/101/3 75/99/3 74/98/3
f 78/102/3 79/103/3 80/104/3
f 81/105/3 79/103/3 78/102/3
f 82/106/3 83/107/3 84/108/3
f 85/109/3 83/107/3 82/106/3
f 86/110/3 87/111/3 88/112/3
f 89/113/3 87/111/3 86/110/3
f 90/114/3 91/115/3 89/113/3
f 92/116/3 93/117/3 94/118/3
f 95/119/3 93/117/3 92/116/3
f 96/120/3 97/121/3 93/122/3
f 96/123/3 93/117/3 95/119/3
f 98/124/3 90/114/3 89/113/3
f 99/125/3 92/126/3 90/127/3
f 99/128/3 90/114/3 98/124/3
f 100/129/3 98/124/3 101/130/3
f 102/131/3 98/124/3 100/129/3
f 103/132/3 92/126/3 99/125/3
f 104/133/3 95/119/3 92/116/3
f 104/134/3 92/126/3 103/132/3
f 105/135/3 96/120/3 95/136/3
f 105/137/3 95/119/3 104/133/3
f 106/138/3 97/121/3 96/120/3
f 106/138/3 96/120/3 105/135/3
f 107/139/3 108/140/3 109/141/3
f 110/142/3 108/140/3 107/139/3
f 111/143/4 112/144/4 113/145/4
f 113/145/4 112/144/4 114/146/4
f 115/147/4 116/148/4 117/149/4
f 114/146/4 115/150/4 117/151/4
f 117/149/4 116/148/4 118/152/4
f 114/146/4 117/151/4 119/153/4
f 119/153/4 117/151/4 120/154/4
f 121/155/4 119/153/4 122/156/4
f 122/156/4 119/153/4 123/157/4
f 124/158/4 125/159/4 126/160/4
f 127/161/4 128/162/4 129/163/4
f 129/163/4 128/162/4 130/164/4
f 126/160/4 125/159/4 131/165/4
f 125/166/4 132/167/4 133/168/4
f 131/165/4 125/159/4 133/169/4
f 134/170/4 126/171/4 135/172/4
f 126/160/4 131/165/4 136/173/4
f 135/172/4 126/171/4 136/174/4
f 131/175/4 133/168/4 137/176/4
f 136/173/4 131/165/4 137/177/4
f 133/168/4 132/167/4 138/178/4
f 137/176/4 133/168/4 138/178/4
f 139/179/5 140/180/5 141/181/5
f 142/182/5 140/180/5 139/179/5
f 143/183/5 144/184/5 142/185/5
f 143/183/5 139/186/5 145/187/5
f 143/183/5 142/185/5 139/186/5
f 146/188/5 144/184/5 143/183/5
f 147/189/5 148/190/5 146/188/5
f 147/189/5 146/188/5 143/183/5
f 147/189/5 143/183/5 149/191/5
f 150/192/5 148/190/5 147/189/5
f 151/193/5 148/190/5 150/192/5
f 152/194/5 148/190/5 151/193/5
f 153/195/5 151/193/5 150/192/5
f 154/196/5 151/193/5 153/195/5
f 155/197/5 156/198/5 157/199/5
f 158/200/5 155/197/5 159/201/5
f 160/202/5 156/198/5 155/197/5
f 160/202/5 155/197/5 158/200/5
f 161/203/5 162/204/5 163/205/5
f 164/206/5 162/204/5 161/203/5
f 165/207/5 166/208/5 167/209/5
f 168/210/5 166/208/5 165/207/5
f 169/211/6 170/212/6 171/213/6
f 171/213/6 170/212/6 172/214/6
f 172/215/6 173/216/6 174/217/6
f 175/218/6 171/219/6 174/217/6
f 171/219/6 172/215/6 174/217/6
f 174/217/6 173/216/6 176/220/6
f 177/221/6 174/217/6 178/222/6
f 178/222/6 174/217/6 179/223/6
f 176/220/6 180/224/6 181/225/6
f 181/225/6 180/224/6 182/226/6
f 179/223/6 181/225/6 183/227/6
f 183/227/6 181/225/6 184/228/6
f 185/229/6 186/230/6 187/231/6
f 187/231/6 186/230/6 188/232/6
f 189/233/6 190/234/6 191/235/6
f 191/235/6 190/234/6 192/236/6
f 191/237/6 192/238/6 193/239/6
f 192/236/6 190/234/6 194/240/6
f 193/239/6 192/238/6 194/241/6
f 193/242/6 194/243/6 195/244/6
f 194/240/6 190/234/6 196/245/6
f 195/244/6 194/243/6 196/246/6
f 195/247/6 196/248/6 197/249/6
f 196/245/6 190/234/6 198/250/6
f 197/249/6 196/248/6 198/251/6
f 197/252/6 198/250/6 199/253/6
f 198/250/6 190/234/6 200/254/6
f 199/253/6 198/250/6 200/254/6
