# Blender v3.1.2 OBJ File: ''
# www.blender.org
mtllib Leontortalder2.mtl
o Leontader2
v -1.998081 0.100000 -2.297445
v -1.998081 0.000000 -2.597445
v -1.998081 0.000000 -2.297445
v -1.998081 0.100000 -2.597445
v -1.898081 0.100000 -2.097445
v -1.898081 0.000000 -2.297445
v -1.898081 0.000000 -2.097445
v -1.898081 0.100000 -2.297445
v -1.898081 0.100000 -2.597445
v -1.898081 0.000000 -2.697445
v -1.898081 0.000000 -2.597445
v -1.898081 0.100000 -2.697445
v -1.798081 0.100000 -1.897445
v -1.798081 0.000000 -2.097445
v -1.798081 0.000000 -1.897445
v -1.798081 0.100000 -2.097445
v -1.798081 0.200000 -2.197445
v -1.798081 0.100000 -2.497445
v -1.798081 0.100000 -2.197445
v -1.798081 0.200000 -2.497445
v -1.698081 0.100000 -1.697445
v -1.698081 0.000000 -1.897445
v -1.698081 0.000000 -1.697445
v -1.698081 0.100000 -1.897445
v -1.698081 0.200000 -1.897445
v -1.698081 0.100000 -2.197445
v -1.698081 0.200000 -2.197445
v -1.698081 0.200000 -2.497445
v -1.698081 0.100000 -2.597445
v -1.698081 0.100000 -2.497445
v -1.698081 0.200000 -2.597445
v -1.698081 0.300000 -2.197445
v -1.698081 0.200000 -2.397445
v -1.698081 0.300000 -2.397445
v -1.598081 0.100000 -1.697445
v -1.598081 0.000000 -1.697445
v -1.598081 0.000000 -1.597445
v -1.598081 0.200000 -1.597445
v -1.598081 0.100000 -1.897445
v -1.598081 0.200000 -1.897445
v -1.598081 0.300000 -1.997445
v -1.598081 0.200000 -2.197445
v -1.598081 0.200000 -1.997445
v -1.598081 0.300000 -2.197445
v -1.598081 0.300000 -2.397445
v -1.598081 0.200000 -2.497445
v -1.598081 0.200000 -2.397445
v -1.598081 0.300000 -2.497445
v -1.498081 0.300000 -1.697445
v -1.498081 0.200000 -1.997445
v -1.498081 0.200000 -1.697445
v -1.498081 0.300000 -1.997445
v -1.498081 0.000000 -1.597445
v -1.498081 0.000000 -1.697445
v -1.498081 0.100000 -1.597445
v -1.498081 0.100000 -1.697445
v -1.398081 0.100000 -1.597445
v -1.398081 0.100000 -1.697445
v -1.398081 0.200000 -1.597445
v -1.398081 0.200000 -1.697445
v -1.398081 0.200000 -2.397445
v -1.398081 0.200000 -2.497445
v -1.398081 0.300000 -2.397445
v -1.398081 0.300000 -2.497445
v -1.298081 0.000000 -1.697445
v -1.298081 0.000000 -1.797445
v -1.298081 0.100000 -1.797445
v -1.298081 0.200000 -1.797445
v -1.298081 0.100000 -2.397445
v -1.298081 0.100000 -2.597445
v -1.298081 0.200000 -2.397445
v -1.298081 0.200000 -2.597445
v -1.298081 0.300000 -1.697445
v -1.298081 0.300000 -1.797445
v -1.298081 0.200000 -2.297445
v -1.298081 0.300000 -2.297445
v -1.298081 0.300000 -2.397445
v -1.198081 0.000000 -2.597445
v -1.198081 0.000000 -2.697445
v -1.198081 0.100000 -2.597445
v -1.198081 0.100000 -2.697445
v -1.198081 0.100000 -2.297445
v -1.198081 0.100000 -2.397445
v -1.198081 0.200000 -2.297445
v -1.198081 0.200000 -2.397445
v -1.198081 0.200000 -2.097445
v -1.198081 0.300000 -2.097445
v -1.198081 0.300000 -2.297445
v -1.098081 0.000000 -1.797445
v -1.098081 0.000000 -1.897445
v -1.098081 0.100000 -1.797445
v -1.098081 0.100000 -1.897445
v -1.098081 0.000000 -2.297445
v -1.098081 0.000000 -2.597445
v -1.098081 0.100000 -2.297445
v -1.098081 0.100000 -2.597445
v -1.098081 0.200000 -1.797445
v -1.098081 0.200000 -1.897445
v -1.098081 0.200000 -2.097445
v -1.098081 0.200000 -2.297445
v -1.098081 0.300000 -1.797445
v -1.098081 0.300000 -2.097445
v -0.998081 0.000000 -1.897445
v -0.998081 0.000000 -1.997445
v -0.998081 0.100000 -1.897445
v -0.998081 0.100000 -1.997445
v -0.998081 0.000000 -2.097445
v -0.998081 0.000000 -2.297445
v -0.998081 0.100000 -2.097445
v -0.998081 0.100000 -2.297445
v -0.898081 0.000000 -1.997445
v -0.898081 0.000000 -2.097445
v -0.898081 0.100000 -1.997445
v -0.898081 0.100000 -2.097445
v -1.498081 0.000000 -1.597445
v -1.598081 0.200000 -1.597445
v -1.598081 0.000000 -1.597445
v -1.498081 0.100000 -1.597445
v -1.398081 0.100000 -1.597445
v -1.398081 0.200000 -1.597445
v -1.598081 0.000000 -1.697445
v -1.698081 0.100000 -1.697445
v -1.698081 0.000000 -1.697445
v -1.598081 0.100000 -1.697445
v -1.398081 0.100000 -1.697445
v -1.498081 0.100000 -1.697445
v -1.498081 0.000000 -1.697445
v -1.398081 0.200000 -1.697445
v -1.498081 0.300000 -1.697445
v -1.498081 0.200000 -1.697445
v -1.298081 0.000000 -1.697445
v -1.298081 0.300000 -1.697445
v -1.098081 0.000000 -1.797445
v -1.298081 0.100000 -1.797445
v -1.298081 0.000000 -1.797445
v -1.098081 0.100000 -1.797445
v -1.298081 0.200000 -1.797445
v -1.098081 0.200000 -1.797445
v -1.298081 0.300000 -1.797445
v -1.098081 0.300000 -1.797445
v -1.698081 0.000000 -1.897445
v -1.798081 0.100000 -1.897445
v -1.798081 0.000000 -1.897445
v -1.698081 0.100000 -1.897445
v -1.598081 0.100000 -1.897445
v -1.698081 0.200000 -1.897445
v -1.598081 0.200000 -1.897445
v -0.998081 0.000000 -1.897445
v -1.098081 0.100000 -1.897445
v -1.098081 0.000000 -1.897445
v -0.998081 0.100000 -1.897445
v -1.498081 0.200000 -1.997445
v -1.598081 0.300000 -1.997445
v -1.598081 0.200000 -1.997445
v -1.498081 0.300000 -1.997445
v -0.898081 0.000000 -1.997445
v -0.998081 0.100000 -1.997445
v -0.998081 0.000000 -1.997445
v -0.898081 0.100000 -1.997445
v -1.798081 0.000000 -2.097445
v -1.898081 0.100000 -2.097445
v -1.898081 0.000000 -2.097445
v -1.798081 0.100000 -2.097445
v -1.698081 0.100000 -2.197445
v -1.798081 0.200000 -2.197445
v -1.798081 0.100000 -2.197445
v -1.698081 0.200000 -2.197445
v -1.598081 0.200000 -2.197445
v -1.698081 0.300000 -2.197445
v -1.598081 0.300000 -2.197445
v -1.898081 0.000000 -2.297445
v -1.998081 0.100000 -2.297445
v -1.998081 0.000000 -2.297445
v -1.898081 0.100000 -2.297445
v -1.198081 0.200000 -2.097445
v -1.198081 0.300000 -2.097445
v -1.098081 0.200000 -2.097445
v -1.098081 0.300000 -2.097445
v -0.998081 0.000000 -2.097445
v -0.998081 0.100000 -2.097445
v -0.898081 0.000000 -2.097445
v -0.898081 0.100000 -2.097445
v -1.298081 0.200000 -2.297445
v -1.298081 0.300000 -2.297445
v -1.198081 0.200000 -2.297445
v -1.198081 0.300000 -2.297445
v -1.198081 0.100000 -2.297445
v -1.098081 0.100000 -2.297445
v -1.098081 0.200000 -2.297445
v -1.098081 0.000000 -2.297445
v -0.998081 0.000000 -2.297445
v -0.998081 0.100000 -2.297445
v -1.698081 0.200000 -2.397445
v -1.698081 0.300000 -2.397445
v -1.598081 0.200000 -2.397445
v -1.598081 0.300000 -2.397445
v -1.398081 0.200000 -2.397445
v -1.398081 0.300000 -2.397445
v -1.298081 0.200000 -2.397445
v -1.298081 0.300000 -2.397445
v -1.298081 0.100000 -2.397445
v -1.198081 0.100000 -2.397445
v -1.198081 0.200000 -2.397445
v -1.798081 0.100000 -2.497445
v -1.798081 0.200000 -2.497445
v -1.698081 0.100000 -2.497445
v -1.698081 0.200000 -2.497445
v -1.598081 0.200000 -2.497445
v -1.598081 0.300000 -2.497445
v -1.398081 0.200000 -2.497445
v -1.398081 0.300000 -2.497445
v -1.998081 0.000000 -2.597445
v -1.998081 0.100000 -2.597445
v -1.898081 0.000000 -2.597445
v -1.898081 0.100000 -2.597445
v -1.698081 0.100000 -2.597445
v -1.698081 0.200000 -2.597445
v -1.298081 0.100000 -2.597445
v -1.298081 0.200000 -2.597445
v -1.198081 0.000000 -2.597445
v -1.198081 0.100000 -2.597445
v -1.098081 0.000000 -2.597445
v -1.098081 0.100000 -2.597445
v -1.898081 0.000000 -2.697445
v -1.898081 0.100000 -2.697445
v -1.198081 0.000000 -2.697445
v -1.198081 0.100000 -2.697445
v -1.598081 0.000000 -1.697445
v -1.498081 0.000000 -1.597445
v -1.598081 0.000000 -1.597445
v -1.498081 0.000000 -1.697445
v -1.298081 0.000000 -1.797445
v -1.698081 0.000000 -1.697445
v -1.298081 0.000000 -1.697445
v -1.698081 0.000000 -1.897445
v -1.098081 0.000000 -1.797445
v -1.098081 0.000000 -1.897445
v -0.998081 0.000000 -1.997445
v -1.798081 0.000000 -1.897445
v -0.998081 0.000000 -1.897445
v -1.798081 0.000000 -2.097445
v -0.898081 0.000000 -1.997445
v -0.998081 0.000000 -2.097445
v -0.898081 0.000000 -2.097445
v -1.898081 0.000000 -2.297445
v -1.898081 0.000000 -2.097445
v -1.098081 0.000000 -2.297445
v -0.998081 0.000000 -2.297445
v -1.998081 0.000000 -2.597445
v -1.998081 0.000000 -2.297445
v -1.898081 0.000000 -2.597445
v -1.198081 0.000000 -2.597445
v -1.098081 0.000000 -2.597445
v -1.898081 0.000000 -2.697445
v -1.198081 0.000000 -2.697445
v -1.498081 0.100000 -1.697445
v -1.398081 0.100000 -1.597445
v -1.498081 0.100000 -1.597445
v -1.398081 0.100000 -1.697445
v -1.698081 0.100000 -1.697445
v -1.598081 0.100000 -1.697445
v -1.698081 0.100000 -1.897445
v -1.598081 0.100000 -1.897445
v -1.098081 0.100000 -1.897445
v -0.998081 0.100000 -1.897445
v -0.998081 0.100000 -1.997445
v -1.798081 0.100000 -1.897445
v -1.798081 0.100000 -2.097445
v -0.898081 0.100000 -1.997445
v -0.998081 0.100000 -2.097445
v -0.898081 0.100000 -2.097445
v -1.898081 0.100000 -2.097445
v -1.798081 0.100000 -2.197445
v -1.698081 0.100000 -2.197445
v -1.898081 0.100000 -2.297445
v -1.098081 0.100000 -2.297445
v -0.998081 0.100000 -2.297445
v -1.198081 0.100000 -2.297445
v -1.198081 0.100000 -2.397445
v -1.798081 0.100000 -2.497445
v -1.998081 0.100000 -2.297445
v -1.998081 0.100000 -2.597445
v -1.698081 0.100000 -2.497445
v -1.898081 0.100000 -2.597445
v -1.698081 0.100000 -2.597445
v -1.298081 0.100000 -2.397445
v -1.298081 0.100000 -2.597445
v -1.198081 0.100000 -2.597445
v -1.098081 0.100000 -2.597445
v -1.898081 0.100000 -2.697445
v -1.198081 0.100000 -2.697445
v -1.598081 0.200000 -1.597445
v -1.398081 0.200000 -1.597445
v -1.498081 0.200000 -1.697445
v -1.398081 0.200000 -1.697445
v -1.598081 0.200000 -1.897445
v -1.598081 0.200000 -1.997445
v -1.698081 0.200000 -1.897445
v -1.498081 0.200000 -1.997445
v -1.698081 0.200000 -2.197445
v -1.598081 0.200000 -2.197445
v -1.198081 0.200000 -2.097445
v -1.098081 0.200000 -2.097445
v -1.198081 0.200000 -2.297445
v -1.098081 0.200000 -2.297445
v -1.798081 0.200000 -2.197445
v -1.698081 0.200000 -2.397445
v -1.298081 0.200000 -2.297445
v -1.298081 0.200000 -2.397445
v -1.198081 0.200000 -2.397445
v -1.598081 0.200000 -2.397445
v -1.798081 0.200000 -2.497445
v -1.698081 0.200000 -2.497445
v -1.598081 0.200000 -2.497445
v -1.398081 0.200000 -2.397445
v -1.398081 0.200000 -2.497445
v -1.698081 0.200000 -2.597445
v -1.298081 0.200000 -2.597445
v -1.498081 0.300000 -1.697445
v -1.298081 0.300000 -1.697445
v -1.298081 0.300000 -1.797445
v -1.498081 0.300000 -1.997445
v -1.098081 0.300000 -1.797445
v -1.198081 0.300000 -2.097445
v -1.598081 0.300000 -1.997445
v -1.098081 0.300000 -2.097445
v -1.598081 0.300000 -2.197445
v -1.298081 0.300000 -2.297445
v -1.698081 0.300000 -2.197445
v -1.198081 0.300000 -2.297445
v -1.698081 0.300000 -2.397445
v -1.598081 0.300000 -2.397445
v -1.398081 0.300000 -2.397445
v -1.298081 0.300000 -2.397445
v -1.598081 0.300000 -2.497445
v -1.398081 0.300000 -2.497445
vt 0.771484 0.500000
vt 0.771484 0.500000
vt 0.771484 0.500000
vt 0.771484 0.500000
vt 0.771484 0.500000
vt 0.771484 0.500000
vt 0.771484 0.500000
vt 0.771484 0.500000
vt 0.771484 0.500000
vt 0.771484 0.500000
vt 0.771484 0.500000
vt 0.771484 0.500000
vt 0.771484 0.500000
vt 0.771484 0.500000
vt 0.771484 0.500000
vt 0.771484 0.500000
vt 0.771484 0.500000
vt 0.771484 0.500000
vt 0.771484 0.500000
vt 0.771484 0.500000
vt 0.771484 0.500000
vt 0.771484 0.500000
vt 0.771484 0.500000
vt 0.771484 0.500000
vt 0.771484 0.500000
vt 0.771484 0.500000
vt 0.771484 0.500000
vt 0.771484 0.500000
vt 0.771484 0.500000
vt 0.771484 0.500000
vt 0.771484 0.500000
vt 0.771484 0.500000
vt 0.771484 0.500000
vt 0.771484 0.500000
vt 0.771484 0.500000
vt 0.771484 0.500000
vt 0.771484 0.500000
vt 0.771484 0.500000
vt 0.771484 0.500000
vt 0.771484 0.500000
vt 0.771484 0.500000
vt 0.771484 0.500000
vt 0.771484 0.500000
vt 0.771484 0.500000
vt 0.771484 0.500000
vt 0.771484 0.500000
vt 0.771484 0.500000
vt 0.771484 0.500000
vt 0.771484 0.500000
vt 0.771484 0.500000
vt 0.771484 0.500000
vt 0.771484 0.500000
vt 0.771484 0.500000
vt 0.771484 0.500000
vt 0.771484 0.500000
vt 0.771484 0.500000
vt 0.771484 0.500000
vt 0.771484 0.500000
vt 0.771484 0.500000
vt 0.771484 0.500000
vt 0.771484 0.500000
vt 0.771484 0.500000
vt 0.771484 0.500000
vt 0.771484 0.500000
vt 0.771484 0.500000
vt 0.771484 0.500000
vt 0.771484 0.500000
vt 0.771484 0.500000
vt 0.771484 0.500000
vt 0.771484 0.500000
vt 0.771484 0.500000
vt 0.771484 0.500000
vt 0.771484 0.500000
vt 0.771484 0.500000
vt 0.771484 0.500000
vt 0.771484 0.500000
vt 0.771484 0.500000
vt 0.771484 0.500000
vt 0.771484 0.500000
vt 0.771484 0.500000
vt 0.771484 0.500000
vt 0.771484 0.500000
vt 0.771484 0.500000
vt 0.771484 0.500000
vt 0.771484 0.500000
vt 0.771484 0.500000
vt 0.771484 0.500000
vt 0.771484 0.500000
vt 0.771484 0.500000
vt 0.771484 0.500000
vt 0.771484 0.500000
vt 0.771484 0.500000
vt 0.771484 0.500000
vt 0.771484 0.500000
vt 0.771484 0.500000
vt 0.771484 0.500000
vt 0.677734 0.500000
vt 0.677734 0.500000
vt 0.677734 0.500000
vt 0.771484 0.500000
vt 0.677734 0.500000
vt 0.771484 0.500000
vt 0.771484 0.500000
vt 0.771484 0.500000
vt 0.771484 0.500000
vt 0.771484 0.500000
vt 0.771484 0.500000
vt 0.771484 0.500000
vt 0.771484 0.500000
vt 0.771484 0.500000
vt 0.771484 0.500000
vt 0.771484 0.500000
vt 0.771484 0.500000
vt 0.771484 0.500000
vt 0.771484 0.500000
vt 0.771484 0.500000
vt 0.771484 0.500000
vt 0.771484 0.500000
vt 0.771484 0.500000
vt 0.771484 0.500000
vt 0.771484 0.500000
vt 0.771484 0.500000
vt 0.771484 0.500000
vt 0.771484 0.500000
vt 0.771484 0.500000
vt 0.771484 0.500000
vt 0.771484 0.500000
vt 0.771484 0.500000
vt 0.771484 0.500000
vt 0.771484 0.500000
vt 0.771484 0.500000
vt 0.771484 0.500000
vt 0.771484 0.500000
vt 0.771484 0.500000
vt 0.771484 0.500000
vt 0.771484 0.500000
vt 0.771484 0.500000
vt 0.771484 0.500000
vt 0.771484 0.500000
vt 0.677734 0.500000
vt 0.677734 0.500000
vt 0.677734 0.500000
vt 0.771484 0.500000
vt 0.771484 0.500000
vt 0.771484 0.500000
vt 0.771484 0.500000
vt 0.677734 0.500000
vt 0.771484 0.500000
vt 0.771484 0.500000
vt 0.771484 0.500000
vt 0.771484 0.500000
vt 0.771484 0.500000
vt 0.771484 0.500000
vt 0.771484 0.500000
vt 0.771484 0.500000
vt 0.771484 0.500000
vt 0.771484 0.500000
vt 0.771484 0.500000
vt 0.771484 0.500000
vt 0.771484 0.500000
vt 0.771484 0.500000
vt 0.771484 0.500000
vt 0.771484 0.500000
vt 0.771484 0.500000
vt 0.771484 0.500000
vt 0.771484 0.500000
vt 0.771484 0.500000
vt 0.771484 0.500000
vt 0.771484 0.500000
vt 0.771484 0.500000
vt 0.771484 0.500000
vt 0.771484 0.500000
vt 0.771484 0.500000
vt 0.771484 0.500000
vt 0.771484 0.500000
vt 0.771484 0.500000
vt 0.771484 0.500000
vt 0.771484 0.500000
vt 0.771484 0.500000
vt 0.771484 0.500000
vt 0.771484 0.500000
vt 0.771484 0.500000
vt 0.771484 0.500000
vt 0.771484 0.500000
vt 0.771484 0.500000
vt 0.771484 0.500000
vt 0.771484 0.500000
vt 0.771484 0.500000
vt 0.771484 0.500000
vt 0.771484 0.500000
vt 0.771484 0.500000
vt 0.771484 0.500000
vt 0.771484 0.500000
vt 0.771484 0.500000
vt 0.771484 0.500000
vt 0.771484 0.500000
vt 0.771484 0.500000
vt 0.771484 0.500000
vt 0.771484 0.500000
vt 0.771484 0.500000
vt 0.771484 0.500000
vt 0.771484 0.500000
vt 0.771484 0.500000
vt 0.771484 0.500000
vt 0.771484 0.500000
vt 0.771484 0.500000
vt 0.771484 0.500000
vt 0.771484 0.500000
vt 0.771484 0.500000
vt 0.771484 0.500000
vt 0.771484 0.500000
vt 0.771484 0.500000
vt 0.771484 0.500000
vt 0.771484 0.500000
vt 0.771484 0.500000
vt 0.771484 0.500000
vt 0.771484 0.500000
vt 0.771484 0.500000
vt 0.771484 0.500000
vt 0.771484 0.500000
vt 0.771484 0.500000
vt 0.771484 0.500000
vt 0.771484 0.500000
vt 0.771484 0.500000
vt 0.771484 0.500000
vt 0.771484 0.500000
vt 0.771484 0.500000
vt 0.771484 0.500000
vt 0.771484 0.500000
vt 0.771484 0.500000
vt 0.771484 0.500000
vt 0.771484 0.500000
vt 0.771484 0.500000
vt 0.771484 0.500000
vt 0.771484 0.500000
vt 0.771484 0.500000
vt 0.771484 0.500000
vt 0.771484 0.500000
vt 0.771484 0.500000
vt 0.771484 0.500000
vt 0.771484 0.500000
vt 0.771484 0.500000
vt 0.771484 0.500000
vt 0.771484 0.500000
vt 0.771484 0.500000
vt 0.771484 0.500000
vt 0.771484 0.500000
vt 0.771484 0.500000
vt 0.771484 0.500000
vt 0.771484 0.500000
vt 0.771484 0.500000
vt 0.771484 0.500000
vt 0.771484 0.500000
vt 0.771484 0.500000
vt 0.771484 0.500000
vt 0.771484 0.500000
vt 0.771484 0.500000
vt 0.771484 0.500000
vt 0.771484 0.500000
vt 0.771484 0.500000
vt 0.771484 0.500000
vt 0.771484 0.500000
vt 0.771484 0.500000
vt 0.771484 0.500000
vt 0.771484 0.500000
vt 0.771484 0.500000
vt 0.771484 0.500000
vt 0.771484 0.500000
vt 0.771484 0.500000
vt 0.771484 0.500000
vt 0.771484 0.500000
vt 0.771484 0.500000
vt 0.771484 0.500000
vt 0.771484 0.500000
vt 0.771484 0.500000
vt 0.771484 0.500000
vt 0.771484 0.500000
vt 0.771484 0.500000
vt 0.771484 0.500000
vt 0.771484 0.500000
vt 0.771484 0.500000
vt 0.771484 0.500000
vt 0.771484 0.500000
vt 0.771484 0.500000
vt 0.771484 0.500000
vt 0.771484 0.500000
vt 0.771484 0.500000
vt 0.771484 0.500000
vt 0.771484 0.500000
vt 0.771484 0.500000
vt 0.771484 0.500000
vt 0.771484 0.500000
vt 0.771484 0.500000
vt 0.771484 0.500000
vt 0.771484 0.500000
vt 0.771484 0.500000
vt 0.771484 0.500000
vt 0.771484 0.500000
vt 0.771484 0.500000
vt 0.771484 0.500000
vt 0.771484 0.500000
vt 0.771484 0.500000
vt 0.771484 0.500000
vt 0.771484 0.500000
vt 0.771484 0.500000
vt 0.771484 0.500000
vt 0.771484 0.500000
vt 0.771484 0.500000
vt 0.771484 0.500000
vt 0.771484 0.500000
vt 0.771484 0.500000
vt 0.771484 0.500000
vt 0.771484 0.500000
vt 0.771484 0.500000
vt 0.771484 0.500000
vt 0.771484 0.500000
vt 0.771484 0.500000
vt 0.771484 0.500000
vt 0.771484 0.500000
vt 0.771484 0.500000
vt 0.771484 0.500000
vt 0.771484 0.500000
vt 0.771484 0.500000
vt 0.771484 0.500000
vt 0.771484 0.500000
vt 0.771484 0.500000
vt 0.771484 0.500000
vt 0.771484 0.500000
vt 0.771484 0.500000
vt 0.771484 0.500000
vt 0.771484 0.500000
vt 0.771484 0.500000
vt 0.771484 0.500000
vt 0.771484 0.500000
vt 0.771484 0.500000
vt 0.771484 0.500000
vt 0.771484 0.500000
vt 0.771484 0.500000
vt 0.771484 0.500000
vt 0.771484 0.500000
vt 0.771484 0.500000
vt 0.771484 0.500000
vt 0.771484 0.500000
vt 0.771484 0.500000
vn -1.0000 0.0000 0.0000
vn 1.0000 0.0000 0.0000
vn 0.0000 0.0000 1.0000
vn 0.0000 0.0000 -1.0000
vn 0.0000 -1.0000 -0.0000
vn 0.0000 1.0000 0.0000
usemtl palette.003
s 1
f 1/1/1 2/2/1 3/3/1
f 4/4/1 2/2/1 1/1/1
f 5/5/1 6/6/1 7/7/1
f 8/8/1 6/6/1 5/5/1
f 9/9/1 10/10/1 11/11/1
f 12/12/1 10/10/1 9/9/1
f 13/13/1 14/14/1 15/15/1
f 16/16/1 14/14/1 13/13/1
f 17/17/1 18/18/1 19/19/1
f 20/20/1 18/18/1 17/17/1
f 21/21/1 22/22/1 23/23/1
f 24/24/1 22/22/1 21/21/1
f 25/25/1 26/26/1 24/24/1
f 27/27/1 26/26/1 25/25/1
f 28/28/1 29/29/1 30/30/1
f 31/31/1 29/29/1 28/28/1
f 32/32/1 33/33/1 27/27/1
f 34/34/1 33/33/1 32/32/1
f 35/35/1 36/36/1 37/37/1
f 38/38/1 35/35/1 37/37/1
f 38/38/1 39/39/1 35/35/1
f 40/40/1 39/39/1 38/38/1
f 41/41/1 42/42/1 43/43/1
f 44/44/1 42/42/1 41/41/1
f 45/45/1 46/46/1 47/47/1
f 48/48/1 46/46/1 45/45/1
f 49/49/1 50/50/1 51/51/1
f 52/52/1 50/50/1 49/49/1
f 53/53/2 54/54/2 55/55/2
f 55/55/2 54/54/2 56/56/2
f 57/57/2 58/58/2 59/59/2
f 59/59/2 58/58/2 60/60/2
f 61/61/2 62/62/2 63/63/2
f 63/63/2 62/62/2 64/64/2
f 65/65/2 66/66/2 67/67/2
f 65/65/2 67/67/2 68/68/2
f 69/69/2 70/70/2 71/71/2
f 71/71/2 70/70/2 72/72/2
f 65/65/2 68/68/2 73/73/2
f 73/73/2 68/68/2 74/74/2
f 75/75/2 71/71/2 76/76/2
f 76/76/2 71/71/2 77/77/2
f 78/78/2 79/79/2 80/80/2
f 80/80/2 79/79/2 81/81/2
f 82/82/2 83/83/2 84/84/2
f 84/84/2 83/83/2 85/85/2
f 86/86/2 84/84/2 87/87/2
f 87/87/2 84/84/2 88/88/2
f 89/89/2 90/90/2 91/91/2
f 91/91/2 90/90/2 92/92/2
f 93/93/2 94/94/2 95/95/2
f 95/95/2 94/94/2 96/96/2
f 91/97/2 92/98/2 97/99/2
f 92/92/2 95/95/2 98/100/2
f 97/99/2 92/98/2 98/101/2
f 98/100/2 95/95/2 99/102/2
f 99/102/2 95/95/2 100/103/2
f 97/104/2 98/100/2 101/105/2
f 98/100/2 99/102/2 101/105/2
f 101/105/2 99/102/2 102/106/2
f 103/107/2 104/108/2 105/109/2
f 105/109/2 104/108/2 106/110/2
f 107/111/2 108/112/2 109/113/2
f 109/113/2 108/112/2 110/114/2
f 111/115/2 112/116/2 113/117/2
f 113/117/2 112/116/2 114/118/2
f 115/119/3 116/120/3 117/121/3
f 118/122/3 116/120/3 115/119/3
f 119/123/3 116/120/3 118/122/3
f 120/124/3 116/120/3 119/123/3
f 121/125/3 122/126/3 123/127/3
f 124/128/3 122/126/3 121/125/3
f 125/129/3 126/130/3 127/131/3
f 128/132/3 129/133/3 130/134/3
f 131/135/3 125/129/3 127/131/3
f 131/135/3 128/132/3 125/129/3
f 132/136/3 129/133/3 128/132/3
f 132/136/3 128/132/3 131/135/3
f 133/137/3 134/138/3 135/139/3
f 136/140/3 137/141/3 134/142/3
f 136/143/3 134/138/3 133/137/3
f 138/144/3 139/145/3 137/146/3
f 138/147/3 137/141/3 136/140/3
f 140/148/3 139/145/3 138/144/3
f 141/149/3 142/150/3 143/151/3
f 144/152/3 142/150/3 141/149/3
f 145/153/3 146/154/3 144/152/3
f 147/155/3 146/154/3 145/153/3
f 148/156/3 149/157/3 150/158/3
f 151/159/3 149/157/3 148/156/3
f 152/160/3 153/161/3 154/162/3
f 155/163/3 153/161/3 152/160/3
f 156/164/3 157/165/3 158/166/3
f 159/167/3 157/165/3 156/164/3
f 160/168/3 161/169/3 162/170/3
f 163/171/3 161/169/3 160/168/3
f 164/172/3 165/173/3 166/174/3
f 167/175/3 165/173/3 164/172/3
f 168/176/3 169/177/3 167/175/3
f 170/178/3 169/177/3 168/176/3
f 171/179/3 172/180/3 173/181/3
f 174/182/3 172/180/3 171/179/3
f 175/183/4 176/184/4 177/185/4
f 177/185/4 176/184/4 178/186/4
f 179/187/4 180/188/4 181/189/4
f 181/189/4 180/188/4 182/190/4
f 183/191/4 184/192/4 185/193/4
f 185/193/4 184/192/4 186/194/4
f 187/195/4 185/193/4 188/196/4
f 188/196/4 185/193/4 189/197/4
f 190/198/4 188/196/4 191/199/4
f 191/199/4 188/196/4 192/200/4
f 193/201/4 194/202/4 195/203/4
f 195/203/4 194/202/4 196/204/4
f 197/205/4 198/206/4 199/207/4
f 199/207/4 198/206/4 200/208/4
f 201/209/4 199/207/4 202/210/4
f 202/210/4 199/207/4 203/211/4
f 204/212/4 205/213/4 206/214/4
f 206/214/4 205/213/4 207/215/4
f 208/216/4 209/217/4 210/218/4
f 210/218/4 209/217/4 211/219/4
f 212/220/4 213/221/4 214/222/4
f 214/222/4 213/221/4 215/223/4
f 216/224/4 217/225/4 218/226/4
f 218/226/4 217/225/4 219/227/4
f 220/228/4 221/229/4 222/230/4
f 222/230/4 221/229/4 223/231/4
f 224/232/4 225/233/4 226/234/4
f 226/234/4 225/233/4 227/235/4
f 228/236/5 229/237/5 230/238/5
f 231/239/5 229/237/5 228/236/5
f 232/240/5 228/236/5 233/241/5
f 232/240/5 234/242/5 231/239/5
f 232/240/5 231/239/5 228/236/5
f 235/243/5 232/240/5 233/241/5
f 235/243/5 236/244/5 232/240/5
f 237/245/5 236/244/5 235/243/5
f 238/246/5 235/243/5 239/247/5
f 238/246/5 240/248/5 237/245/5
f 238/246/5 237/245/5 235/243/5
f 241/249/5 238/246/5 239/247/5
f 241/249/5 242/250/5 238/246/5
f 243/251/5 242/250/5 241/249/5
f 244/252/5 242/250/5 243/251/5
f 245/253/5 241/249/5 246/254/5
f 245/253/5 243/251/5 241/249/5
f 247/255/5 243/251/5 245/253/5
f 248/256/5 243/251/5 247/255/5
f 249/257/5 245/253/5 250/258/5
f 249/257/5 247/255/5 245/253/5
f 251/259/5 247/255/5 249/257/5
f 252/260/5 247/255/5 251/259/5
f 253/261/5 247/255/5 252/260/5
f 254/262/5 252/260/5 251/259/5
f 255/263/5 252/260/5 254/262/5
f 256/264/5 257/265/5 258/266/5
f 259/267/5 257/265/5 256/264/5
f 260/268/6 261/269/6 262/270/6
f 262/270/6 261/269/6 263/271/6
f 264/272/6 265/273/6 266/274/6
f 267/275/6 262/270/6 268/276/6
f 266/274/6 269/277/6 270/278/6
f 264/272/6 266/274/6 270/278/6
f 270/278/6 269/277/6 271/279/6
f 272/280/6 268/276/6 273/281/6
f 268/276/6 262/270/6 273/281/6
f 273/281/6 262/270/6 274/282/6
f 272/280/6 273/281/6 275/283/6
f 264/272/6 270/278/6 276/284/6
f 276/284/6 270/278/6 277/285/6
f 278/286/6 276/284/6 279/287/6
f 275/283/6 273/281/6 280/288/6
f 281/289/6 275/283/6 280/288/6
f 281/289/6 280/288/6 282/290/6
f 280/288/6 283/291/6 282/290/6
f 282/290/6 283/291/6 284/292/6
f 284/292/6 283/291/6 285/293/6
f 286/294/6 279/287/6 287/295/6
f 279/287/6 276/284/6 288/296/6
f 287/295/6 279/287/6 288/296/6
f 288/296/6 276/284/6 289/297/6
f 284/292/6 285/293/6 290/298/6
f 285/293/6 287/295/6 290/298/6
f 287/295/6 288/296/6 290/298/6
f 290/298/6 288/296/6 291/299/6
f 292/300/6 293/301/6 294/302/6
f 294/302/6 293/301/6 295/303/6
f 292/300/6 294/302/6 296/304/6
f 296/304/6 294/302/6 297/305/6
f 298/306/6 296/304/6 297/305/6
f 297/305/6 294/302/6 299/307/6
f 298/306/6 297/305/6 300/308/6
f 300/308/6 297/305/6 301/309/6
f 302/310/6 303/311/6 304/312/6
f 304/312/6 303/311/6 305/313/6
f 306/314/6 300/308/6 307/315/6
f 308/316/6 304/312/6 309/317/6
f 309/317/6 304/312/6 310/318/6
f 307/315/6 311/319/6 312/320/6
f 306/314/6 307/315/6 312/320/6
f 312/320/6 311/319/6 313/321/6
f 313/321/6 311/319/6 314/322/6
f 315/323/6 309/317/6 316/324/6
f 313/321/6 314/322/6 317/325/6
f 314/322/6 316/324/6 317/325/6
f 316/324/6 309/317/6 318/326/6
f 317/325/6 316/324/6 318/326/6
f 319/327/6 320/328/6 321/329/6
f 319/327/6 321/329/6 322/330/6
f 321/329/6 323/331/6 322/330/6
f 322/330/6 323/331/6 324/332/6
f 325/333/6 322/330/6 324/332/6
f 324/332/6 323/331/6 326/334/6
f 325/333/6 324/332/6 327/335/6
f 327/335/6 324/332/6 328/336/6
f 329/337/6 327/335/6 328/336/6
f 328/336/6 324/332/6 330/338/6
f 329/337/6 328/336/6 331/339/6
f 331/339/6 328/336/6 332/340/6
f 332/340/6 328/336/6 333/341/6
f 333/341/6 328/336/6 334/342/6
f 332/340/6 333/341/6 335/343/6
f 335/343/6 333/341/6 336/344/6
