# Blender v3.1.2 OBJ File: ''
# www.blender.org
mtllib talaspa6.mtl
o taladro6
v -0.415385 0.179487 0.050000
v -0.415385 -0.220513 -0.050000
v -0.415385 -0.220513 0.050000
v -0.415385 0.179487 -0.050000
v -0.315385 -0.220513 0.050000
v -0.315385 -0.320513 -0.050000
v -0.315385 -0.320513 0.050000
v -0.315385 -0.220513 -0.050000
v -0.315385 0.279487 0.050000
v -0.315385 0.179487 -0.050000
v -0.315385 0.179487 0.050000
v -0.315385 0.279487 -0.050000
v 0.284615 -0.320513 0.050000
v 0.284615 -0.320513 -0.050000
v 0.284615 -0.220513 0.050000
v 0.284615 -0.220513 -0.050000
v 0.284615 0.179487 0.050000
v 0.284615 0.179487 -0.050000
v 0.284615 0.279487 0.050000
v 0.284615 0.279487 -0.050000
v 0.384615 -0.220513 0.050000
v 0.384615 -0.220513 -0.050000
v 0.384615 0.179487 0.050000
v 0.384615 0.179487 -0.050000
v -0.315385 -0.220513 0.050000
v -0.415385 0.179487 0.050000
v -0.415385 -0.220513 0.050000
v -0.315385 0.179487 0.050000
v 0.184615 0.179487 0.050000
v -0.315385 -0.320513 0.050000
v -0.315385 0.279487 0.050000
v 0.184615 0.279487 0.050000
v 0.284615 -0.320513 0.050000
v 0.284615 -0.220513 0.050000
v 0.284615 0.179487 0.050000
v 0.284615 0.279487 0.050000
v 0.384615 -0.220513 0.050000
v 0.384615 0.179487 0.050000
v -0.415385 -0.220513 -0.050000
v -0.415385 0.179487 -0.050000
v -0.315385 -0.220513 -0.050000
v -0.315385 0.179487 -0.050000
v -0.315385 -0.320513 -0.050000
v 0.184615 0.179487 -0.050000
v -0.315385 0.279487 -0.050000
v 0.184615 0.279487 -0.050000
v 0.284615 -0.320513 -0.050000
v 0.284615 -0.220513 -0.050000
v 0.284615 0.179487 -0.050000
v 0.284615 0.279487 -0.050000
v 0.384615 -0.220513 -0.050000
v 0.384615 0.179487 -0.050000
v -0.315385 -0.320513 -0.050000
v 0.284615 -0.320513 0.050000
v -0.315385 -0.320513 0.050000
v 0.284615 -0.320513 -0.050000
v -0.415385 -0.220513 -0.050000
v -0.315385 -0.220513 0.050000
v -0.415385 -0.220513 0.050000
v -0.315385 -0.220513 -0.050000
v 0.284615 -0.220513 -0.050000
v 0.384615 -0.220513 0.050000
v 0.284615 -0.220513 0.050000
v 0.384615 -0.220513 -0.050000
v -0.415385 0.179487 0.050000
v -0.315385 0.179487 0.050000
v -0.415385 0.179487 -0.050000
v -0.315385 0.179487 -0.050000
v 0.284615 0.179487 0.050000
v 0.384615 0.179487 0.050000
v 0.284615 0.179487 -0.050000
v 0.384615 0.179487 -0.050000
v -0.315385 0.279487 0.050000
v 0.184615 0.279487 0.050000
v -0.315385 0.279487 -0.050000
v 0.284615 0.279487 0.050000
v 0.184615 0.279487 -0.050000
v 0.284615 0.279487 -0.050000
vt 0.994141 0.500000
vt 0.994141 0.500000
vt 0.994141 0.500000
vt 0.994141 0.500000
vt 0.994141 0.500000
vt 0.994141 0.500000
vt 0.994141 0.500000
vt 0.994141 0.500000
vt 0.990234 0.500000
vt 0.990234 0.500000
vt 0.990234 0.500000
vt 0.990234 0.500000
vt 0.994141 0.500000
vt 0.994141 0.500000
vt 0.994141 0.500000
vt 0.994141 0.500000
vt 0.994141 0.500000
vt 0.994141 0.500000
vt 0.994141 0.500000
vt 0.994141 0.500000
vt 0.994141 0.500000
vt 0.994141 0.500000
vt 0.994141 0.500000
vt 0.994141 0.500000
vt 0.994141 0.500000
vt 0.994141 0.500000
vt 0.994141 0.500000
vt 0.994141 0.500000
vt 0.994141 0.500000
vt 0.994141 0.500000
vt 0.990234 0.500000
vt 0.990234 0.500000
vt 0.990234 0.500000
vt 0.990234 0.500000
vt 0.994141 0.500000
vt 0.994141 0.500000
vt 0.994141 0.500000
vt 0.994141 0.500000
vt 0.994141 0.500000
vt 0.994141 0.500000
vt 0.994141 0.500000
vt 0.994141 0.500000
vt 0.994141 0.500000
vt 0.994141 0.500000
vt 0.994141 0.500000
vt 0.994141 0.500000
vt 0.994141 0.500000
vt 0.990234 0.500000
vt 0.990234 0.500000
vt 0.990234 0.500000
vt 0.990234 0.500000
vt 0.994141 0.500000
vt 0.994141 0.500000
vt 0.994141 0.500000
vt 0.994141 0.500000
vt 0.994141 0.500000
vt 0.994141 0.500000
vt 0.994141 0.500000
vt 0.994141 0.500000
vt 0.994141 0.500000
vt 0.994141 0.500000
vt 0.994141 0.500000
vt 0.994141 0.500000
vt 0.994141 0.500000
vt 0.994141 0.500000
vt 0.994141 0.500000
vt 0.994141 0.500000
vt 0.994141 0.500000
vt 0.994141 0.500000
vt 0.994141 0.500000
vt 0.994141 0.500000
vt 0.994141 0.500000
vt 0.994141 0.500000
vt 0.994141 0.500000
vt 0.994141 0.500000
vt 0.994141 0.500000
vt 0.994141 0.500000
vt 0.994141 0.500000
vt 0.990234 0.500000
vt 0.990234 0.500000
vt 0.990234 0.500000
vt 0.994141 0.500000
vt 0.994141 0.500000
vt 0.994141 0.500000
vt 0.990234 0.500000
vt 0.994141 0.500000
vn -1.0000 0.0000 0.0000
vn 1.0000 -0.0000 0.0000
vn -0.0000 -0.0000 1.0000
vn 0.0000 0.0000 -1.0000
vn 0.0000 -1.0000 0.0000
vn 0.0000 1.0000 0.0000
usemtl palette.016
s 1
f 1/1/1 2/2/1 3/3/1
f 4/4/1 2/2/1 1/1/1
f 5/5/1 6/6/1 7/7/1
f 8/8/1 6/6/1 5/5/1
f 9/9/1 10/10/1 11/11/1
f 12/12/1 10/10/1 9/9/1
f 13/13/2 14/14/2 15/15/2
f 15/15/2 14/14/2 16/16/2
f 17/17/2 18/18/2 19/19/2
f 19/19/2 18/18/2 20/20/2
f 21/21/2 22/22/2 23/23/2
f 23/23/2 22/22/2 24/24/2
f 25/25/3 26/26/3 27/27/3
f 28/28/3 26/26/3 25/25/3
f 29/29/3 25/25/3 30/30/3
f 29/31/3 31/32/3 28/33/3
f 29/29/3 28/28/3 25/25/3
f 32/34/3 31/32/3 29/31/3
f 33/35/3 29/29/3 30/30/3
f 33/35/3 32/36/3 29/29/3
f 34/37/3 32/36/3 33/35/3
f 35/38/3 32/36/3 34/37/3
f 36/39/3 32/36/3 35/38/3
f 37/40/3 35/38/3 34/37/3
f 38/41/3 35/38/3 37/40/3
f 39/42/4 40/43/4 41/44/4
f 41/44/4 40/43/4 42/45/4
f 43/46/4 41/44/4 44/47/4
f 42/48/4 45/49/4 44/50/4
f 41/44/4 42/45/4 44/47/4
f 44/50/4 45/49/4 46/51/4
f 43/46/4 44/47/4 47/52/4
f 44/47/4 46/53/4 47/52/4
f 47/52/4 46/53/4 48/54/4
f 48/54/4 46/53/4 49/55/4
f 49/55/4 46/53/4 50/56/4
f 48/54/4 49/55/4 51/57/4
f 51/57/4 49/55/4 52/58/4
f 53/59/5 54/60/5 55/61/5
f 56/62/5 54/60/5 53/59/5
f 57/63/5 58/64/5 59/65/5
f 60/66/5 58/64/5 57/63/5
f 61/67/5 62/68/5 63/69/5
f 64/70/5 62/68/5 61/67/5
f 65/71/6 66/72/6 67/73/6
f 67/73/6 66/72/6 68/74/6
f 69/75/6 70/76/6 71/77/6
f 71/77/6 70/76/6 72/78/6
f 73/79/6 74/80/6 75/81/6
f 74/82/6 76/83/6 77/84/6
f 75/81/6 74/80/6 77/85/6
f 77/84/6 76/83/6 78/86/6
