# Blender v3.1.2 OBJ File: ''
# www.blender.org
mtllib talaspa8.mtl
o taladro8.001
v -0.390476 0.180952 0.050000
v -0.390476 -0.219048 -0.050001
v -0.390476 -0.219048 0.049999
v -0.390476 0.180952 -0.050001
v -0.290476 -0.219048 0.049999
v -0.290476 -0.319048 -0.050001
v -0.290476 -0.319048 0.049999
v -0.290476 -0.219048 -0.050001
v -0.290476 0.280952 0.050000
v -0.290476 0.180952 -0.050001
v -0.290476 0.180952 0.050000
v -0.290476 0.280952 -0.050001
v 0.309524 -0.319048 0.049999
v 0.309524 -0.319048 -0.050001
v 0.309524 -0.219048 0.049999
v 0.309524 -0.219048 -0.050001
v 0.309524 0.180952 0.050000
v 0.309524 0.180952 -0.050001
v 0.309524 0.280952 0.050000
v 0.309524 0.280952 -0.050001
v 0.409524 -0.219048 0.049999
v 0.409524 -0.219048 -0.050001
v 0.409524 0.180952 0.050000
v 0.409524 0.180952 -0.050001
v -0.290476 -0.219048 0.049999
v -0.390476 0.180952 0.050000
v -0.390476 -0.219048 0.049999
v -0.290476 0.080952 0.049999
v -0.290476 0.180952 0.050000
v -0.190476 -0.219048 0.049999
v -0.290476 -0.319048 0.049999
v -0.190476 0.080952 0.049999
v 0.109524 0.180952 0.050000
v -0.290476 0.280952 0.050000
v 0.109524 0.280952 0.050000
v 0.309524 -0.319048 0.049999
v 0.309524 -0.219048 0.049999
v 0.309524 0.180952 0.050000
v 0.309524 0.280952 0.050000
v 0.409524 -0.219048 0.049999
v 0.409524 0.180952 0.050000
v -0.390476 -0.219048 -0.050001
v -0.390476 0.180952 -0.050001
v -0.290476 -0.219048 -0.050001
v -0.290476 0.080952 -0.050001
v -0.290476 0.180952 -0.050001
v -0.290476 -0.319048 -0.050001
v -0.190476 -0.219048 -0.050001
v -0.190476 0.080952 -0.050001
v -0.290476 0.280952 -0.050001
v 0.109524 0.180952 -0.050001
v 0.109524 0.280952 -0.050001
v 0.309524 -0.319048 -0.050001
v 0.309524 -0.219048 -0.050001
v 0.309524 0.180952 -0.050001
v 0.309524 0.280952 -0.050001
v 0.409524 -0.219048 -0.050001
v 0.409524 0.180952 -0.050001
v -0.290476 -0.319048 -0.050001
v 0.309524 -0.319048 0.049999
v -0.290476 -0.319048 0.049999
v 0.309524 -0.319048 -0.050001
v -0.390476 -0.219048 -0.050001
v -0.290476 -0.219048 0.049999
v -0.390476 -0.219048 0.049999
v -0.290476 -0.219048 -0.050001
v 0.309524 -0.219048 -0.050001
v 0.409524 -0.219048 0.049999
v 0.309524 -0.219048 0.049999
v 0.409524 -0.219048 -0.050001
v -0.390476 0.180952 0.050000
v -0.290476 0.180952 0.050000
v -0.390476 0.180952 -0.050001
v -0.290476 0.180952 -0.050001
v 0.309524 0.180952 0.050000
v 0.409524 0.180952 0.050000
v 0.309524 0.180952 -0.050001
v 0.409524 0.180952 -0.050001
v -0.290476 0.280952 0.050000
v 0.109524 0.280952 0.050000
v -0.290476 0.280952 -0.050001
v 0.309524 0.280952 0.050000
v 0.109524 0.280952 -0.050001
v 0.309524 0.280952 -0.050001
vt 0.994141 0.500000
vt 0.994141 0.500000
vt 0.994141 0.500000
vt 0.994141 0.500000
vt 0.990234 0.500000
vt 0.990234 0.500000
vt 0.990234 0.500000
vt 0.990234 0.500000
vt 0.990234 0.500000
vt 0.990234 0.500000
vt 0.990234 0.500000
vt 0.990234 0.500000
vt 0.990234 0.500000
vt 0.990234 0.500000
vt 0.990234 0.500000
vt 0.990234 0.500000
vt 0.994141 0.500000
vt 0.994141 0.500000
vt 0.994141 0.500000
vt 0.994141 0.500000
vt 0.994141 0.500000
vt 0.994141 0.500000
vt 0.994141 0.500000
vt 0.994141 0.500000
vt 0.994141 0.500000
vt 0.994141 0.500000
vt 0.994141 0.500000
vt 0.994141 0.500000
vt 0.994141 0.500000
vt 0.990234 0.500000
vt 0.990234 0.500000
vt 0.990234 0.500000
vt 0.990234 0.500000
vt 0.994141 0.500000
vt 0.990234 0.500000
vt 0.990234 0.500000
vt 0.990234 0.500000
vt 0.990234 0.500000
vt 0.994141 0.500000
vt 0.994141 0.500000
vt 0.990234 0.500000
vt 0.990234 0.500000
vt 0.994141 0.500000
vt 0.990234 0.500000
vt 0.994141 0.500000
vt 0.994141 0.500000
vt 0.994141 0.500000
vt 0.994141 0.500000
vt 0.994141 0.500000
vt 0.994141 0.500000
vt 0.994141 0.500000
vt 0.994141 0.500000
vt 0.994141 0.500000
vt 0.994141 0.500000
vt 0.990234 0.500000
vt 0.990234 0.500000
vt 0.990234 0.500000
vt 0.990234 0.500000
vt 0.994141 0.500000
vt 0.990234 0.500000
vt 0.990234 0.500000
vt 0.990234 0.500000
vt 0.990234 0.500000
vt 0.994141 0.500000
vt 0.994141 0.500000
vt 0.990234 0.500000
vt 0.990234 0.500000
vt 0.994141 0.500000
vt 0.990234 0.500000
vt 0.994141 0.500000
vt 0.994141 0.500000
vt 0.994141 0.500000
vt 0.994141 0.500000
vt 0.994141 0.500000
vt 0.990234 0.500000
vt 0.990234 0.500000
vt 0.990234 0.500000
vt 0.990234 0.500000
vt 0.994141 0.500000
vt 0.994141 0.500000
vt 0.994141 0.500000
vt 0.994141 0.500000
vt 0.994141 0.500000
vt 0.994141 0.500000
vt 0.994141 0.500000
vt 0.994141 0.500000
vt 0.994141 0.500000
vt 0.994141 0.500000
vt 0.994141 0.500000
vt 0.994141 0.500000
vt 0.994141 0.500000
vt 0.994141 0.500000
vt 0.994141 0.500000
vt 0.994141 0.500000
vt 0.990234 0.500000
vt 0.990234 0.500000
vt 0.990234 0.500000
vt 0.994141 0.500000
vt 0.994141 0.500000
vt 0.994141 0.500000
vt 0.990234 0.500000
vt 0.994141 0.500000
vn -1.0000 0.0000 0.0000
vn 1.0000 0.0000 0.0000
vn 0.0000 -0.0000 1.0000
vn 0.0000 0.0000 -1.0000
vn 0.0000 -1.0000 0.0000
vn 0.0000 1.0000 0.0000
usemtl palette.001
s 1
f 1/1/1 2/2/1 3/3/1
f 4/4/1 2/2/1 1/1/1
f 5/5/1 6/6/1 7/7/1
f 8/8/1 6/6/1 5/5/1
f 9/9/1 10/10/1 11/11/1
f 12/12/1 10/10/1 9/9/1
f 13/13/2 14/14/2 15/15/2
f 15/15/2 14/14/2 16/16/2
f 17/17/2 18/18/2 19/19/2
f 19/19/2 18/18/2 20/20/2
f 21/21/2 22/22/2 23/23/2
f 23/23/2 22/22/2 24/24/2
f 25/25/3 26/26/3 27/27/3
f 28/28/3 26/26/3 25/25/3
f 29/29/3 26/26/3 28/28/3
f 30/30/3 25/31/3 31/32/3
f 30/30/3 28/33/3 25/31/3
f 32/34/3 29/29/3 28/28/3
f 32/35/3 28/33/3 30/30/3
f 33/36/3 34/37/3 29/38/3
f 33/39/3 29/29/3 32/34/3
f 33/39/3 32/34/3 30/40/3
f 35/41/3 34/37/3 33/36/3
f 36/42/3 30/30/3 31/32/3
f 37/43/3 33/39/3 30/40/3
f 37/44/3 30/30/3 36/42/3
f 37/43/3 35/45/3 33/39/3
f 38/46/3 35/45/3 37/43/3
f 39/47/3 35/45/3 38/46/3
f 40/48/3 38/46/3 37/43/3
f 41/49/3 38/46/3 40/48/3
f 42/50/4 43/51/4 44/52/4
f 44/52/4 43/51/4 45/53/4
f 45/53/4 43/51/4 46/54/4
f 47/55/4 44/56/4 48/57/4
f 44/56/4 45/58/4 48/57/4
f 45/53/4 46/54/4 49/59/4
f 48/57/4 45/58/4 49/60/4
f 46/61/4 50/62/4 51/63/4
f 49/59/4 46/54/4 51/64/4
f 48/65/4 49/59/4 51/64/4
f 51/63/4 50/62/4 52/66/4
f 47/55/4 48/57/4 53/67/4
f 48/65/4 51/64/4 54/68/4
f 53/67/4 48/57/4 54/69/4
f 51/64/4 52/70/4 54/68/4
f 54/68/4 52/70/4 55/71/4
f 55/71/4 52/70/4 56/72/4
f 54/68/4 55/71/4 57/73/4
f 57/73/4 55/71/4 58/74/4
f 59/75/5 60/76/5 61/77/5
f 62/78/5 60/76/5 59/75/5
f 63/79/5 64/80/5 65/81/5
f 66/82/5 64/80/5 63/79/5
f 67/83/5 68/84/5 69/85/5
f 70/86/5 68/84/5 67/83/5
f 71/87/6 72/88/6 73/89/6
f 73/89/6 72/88/6 74/90/6
f 75/91/6 76/92/6 77/93/6
f 77/93/6 76/92/6 78/94/6
f 79/95/6 80/96/6 81/97/6
f 80/98/6 82/99/6 83/100/6
f 81/97/6 80/96/6 83/101/6
f 83/100/6 82/99/6 84/102/6
