# Blender v3.1.2 OBJ File: ''
# www.blender.org
mtllib talaspa3.mtl
o Taladropart.001
v -0.384615 0.179487 0.050000
v -0.384615 -0.220513 -0.050001
v -0.384615 -0.220513 0.049999
v -0.384615 0.179487 -0.050001
v -0.284615 -0.220513 0.049999
v -0.284615 -0.320513 -0.050001
v -0.284615 -0.320513 0.049999
v -0.284615 -0.220513 -0.050001
v -0.284615 0.279487 0.050000
v -0.284615 0.179487 -0.050001
v -0.284615 0.179487 0.050000
v -0.284615 0.279487 -0.050001
v 0.315385 -0.320513 0.049999
v 0.315385 -0.320513 -0.050001
v 0.315385 -0.220513 0.049999
v 0.315385 -0.220513 -0.050001
v 0.315385 0.179487 0.050000
v 0.315385 0.179487 -0.050001
v 0.315385 0.279487 0.050000
v 0.315385 0.279487 -0.050001
v 0.415385 -0.220513 0.049999
v 0.415385 -0.220513 -0.050001
v 0.415385 0.179487 0.050000
v 0.415385 0.179487 -0.050001
v -0.284615 -0.220513 0.049999
v -0.384615 0.179487 0.050000
v -0.384615 -0.220513 0.049999
v -0.284615 0.179487 0.050000
v -0.184615 0.179487 0.050000
v -0.284615 -0.320513 0.049999
v -0.284615 0.279487 0.050000
v -0.184615 0.279487 0.050000
v 0.315385 -0.320513 0.049999
v 0.315385 -0.220513 0.049999
v 0.315385 0.179487 0.050000
v 0.315385 0.279487 0.050000
v 0.415385 -0.220513 0.049999
v 0.415385 0.179487 0.050000
v -0.384615 -0.220513 -0.050001
v -0.384615 0.179487 -0.050001
v -0.284615 -0.220513 -0.050001
v -0.284615 0.179487 -0.050001
v -0.284615 -0.320513 -0.050001
v -0.184615 0.179487 -0.050001
v -0.284615 0.279487 -0.050001
v -0.184615 0.279487 -0.050001
v 0.315385 -0.320513 -0.050001
v 0.315385 -0.220513 -0.050001
v 0.315385 0.179487 -0.050001
v 0.315385 0.279487 -0.050001
v 0.415385 -0.220513 -0.050001
v 0.415385 0.179487 -0.050001
v -0.284615 -0.320513 -0.050001
v 0.315385 -0.320513 0.049999
v -0.284615 -0.320513 0.049999
v 0.315385 -0.320513 -0.050001
v -0.384615 -0.220513 -0.050001
v -0.284615 -0.220513 0.049999
v -0.384615 -0.220513 0.049999
v -0.284615 -0.220513 -0.050001
v 0.315385 -0.220513 -0.050001
v 0.415385 -0.220513 0.049999
v 0.315385 -0.220513 0.049999
v 0.415385 -0.220513 -0.050001
v -0.384615 0.179487 0.050000
v -0.284615 0.179487 0.050000
v -0.384615 0.179487 -0.050001
v -0.284615 0.179487 -0.050001
v 0.315385 0.179487 0.050000
v 0.415385 0.179487 0.050000
v 0.315385 0.179487 -0.050001
v 0.415385 0.179487 -0.050001
v -0.284615 0.279487 0.050000
v -0.184615 0.279487 0.050000
v -0.284615 0.279487 -0.050001
v 0.315385 0.279487 0.050000
v -0.184615 0.279487 -0.050001
v 0.315385 0.279487 -0.050001
vt 0.990234 0.500000
vt 0.990234 0.500000
vt 0.990234 0.500000
vt 0.990234 0.500000
vt 0.994141 0.500000
vt 0.994141 0.500000
vt 0.994141 0.500000
vt 0.994141 0.500000
vt 0.990234 0.500000
vt 0.990234 0.500000
vt 0.990234 0.500000
vt 0.990234 0.500000
vt 0.994141 0.500000
vt 0.994141 0.500000
vt 0.994141 0.500000
vt 0.994141 0.500000
vt 0.994141 0.500000
vt 0.994141 0.500000
vt 0.994141 0.500000
vt 0.994141 0.500000
vt 0.994141 0.500000
vt 0.994141 0.500000
vt 0.994141 0.500000
vt 0.994141 0.500000
vt 0.990234 0.500000
vt 0.990234 0.500000
vt 0.990234 0.500000
vt 0.990234 0.500000
vt 0.994141 0.500000
vt 0.994141 0.500000
vt 0.994141 0.500000
vt 0.990234 0.500000
vt 0.990234 0.500000
vt 0.994141 0.500000
vt 0.990234 0.500000
vt 0.994141 0.500000
vt 0.994141 0.500000
vt 0.994141 0.500000
vt 0.994141 0.500000
vt 0.994141 0.500000
vt 0.994141 0.500000
vt 0.994141 0.500000
vt 0.990234 0.500000
vt 0.990234 0.500000
vt 0.990234 0.500000
vt 0.990234 0.500000
vt 0.994141 0.500000
vt 0.994141 0.500000
vt 0.994141 0.500000
vt 0.990234 0.500000
vt 0.990234 0.500000
vt 0.994141 0.500000
vt 0.990234 0.500000
vt 0.994141 0.500000
vt 0.994141 0.500000
vt 0.994141 0.500000
vt 0.994141 0.500000
vt 0.994141 0.500000
vt 0.994141 0.500000
vt 0.994141 0.500000
vt 0.994141 0.500000
vt 0.994141 0.500000
vt 0.994141 0.500000
vt 0.994141 0.500000
vt 0.990234 0.500000
vt 0.990234 0.500000
vt 0.990234 0.500000
vt 0.990234 0.500000
vt 0.994141 0.500000
vt 0.994141 0.500000
vt 0.994141 0.500000
vt 0.994141 0.500000
vt 0.990234 0.500000
vt 0.990234 0.500000
vt 0.990234 0.500000
vt 0.990234 0.500000
vt 0.994141 0.500000
vt 0.994141 0.500000
vt 0.994141 0.500000
vt 0.994141 0.500000
vt 0.990234 0.500000
vt 0.990234 0.500000
vt 0.990234 0.500000
vt 0.994141 0.500000
vt 0.994141 0.500000
vt 0.994141 0.500000
vt 0.990234 0.500000
vt 0.994141 0.500000
vn -1.0000 0.0000 0.0000
vn 1.0000 0.0000 0.0000
vn -0.0000 -0.0000 1.0000
vn 0.0000 0.0000 -1.0000
vn 0.0000 -1.0000 0.0000
vn 0.0000 1.0000 0.0000
usemtl palette.002
s 1
f 1/1/1 2/2/1 3/3/1
f 4/4/1 2/2/1 1/1/1
f 5/5/1 6/6/1 7/7/1
f 8/8/1 6/6/1 5/5/1
f 9/9/1 10/10/1 11/11/1
f 12/12/1 10/10/1 9/9/1
f 13/13/2 14/14/2 15/15/2
f 15/15/2 14/14/2 16/16/2
f 17/17/2 18/18/2 19/19/2
f 19/19/2 18/18/2 20/20/2
f 21/21/2 22/22/2 23/23/2
f 23/23/2 22/22/2 24/24/2
f 25/25/3 26/26/3 27/27/3
f 28/28/3 26/26/3 25/25/3
f 29/29/3 25/30/3 30/31/3
f 29/32/3 31/33/3 28/28/3
f 29/29/3 28/34/3 25/30/3
f 32/35/3 31/33/3 29/32/3
f 33/36/3 29/29/3 30/31/3
f 33/36/3 32/37/3 29/29/3
f 34/38/3 32/37/3 33/36/3
f 35/39/3 32/37/3 34/38/3
f 36/40/3 32/37/3 35/39/3
f 37/41/3 35/39/3 34/38/3
f 38/42/3 35/39/3 37/41/3
f 39/43/4 40/44/4 41/45/4
f 41/45/4 40/44/4 42/46/4
f 43/47/4 41/48/4 44/49/4
f 42/46/4 45/50/4 44/51/4
f 41/48/4 42/52/4 44/49/4
f 44/51/4 45/50/4 46/53/4
f 43/47/4 44/49/4 47/54/4
f 44/49/4 46/55/4 47/54/4
f 47/54/4 46/55/4 48/56/4
f 48/56/4 46/55/4 49/57/4
f 49/57/4 46/55/4 50/58/4
f 48/56/4 49/57/4 51/59/4
f 51/59/4 49/57/4 52/60/4
f 53/61/5 54/62/5 55/63/5
f 56/64/5 54/62/5 53/61/5
f 57/65/5 58/66/5 59/67/5
f 60/68/5 58/66/5 57/65/5
f 61/69/5 62/70/5 63/71/5
f 64/72/5 62/70/5 61/69/5
f 65/73/6 66/74/6 67/75/6
f 67/75/6 66/74/6 68/76/6
f 69/77/6 70/78/6 71/79/6
f 71/79/6 70/78/6 72/80/6
f 73/81/6 74/82/6 75/83/6
f 74/84/6 76/85/6 77/86/6
f 75/83/6 74/82/6 77/87/6
f 77/86/6 76/85/6 78/88/6
