# Blender v3.1.2 OBJ File: ''
# www.blender.org
mtllib talaspa5.mtl
o taladro5.001
v -0.382051 0.205128 0.050001
v -0.382051 -0.194872 -0.049999
v -0.382051 -0.194872 0.050001
v -0.382051 0.205128 -0.049999
v -0.282051 -0.194872 0.050001
v -0.282051 -0.294872 -0.049999
v -0.282051 -0.294872 0.050001
v -0.282051 -0.194872 -0.049999
v -0.282051 0.305128 0.050001
v -0.282051 0.205128 -0.049999
v -0.282051 0.205128 0.050001
v -0.282051 0.305128 -0.049999
v 0.317949 -0.294872 0.050001
v 0.317949 -0.294872 -0.049999
v 0.317949 -0.194872 0.050001
v 0.317949 -0.194872 -0.049999
v 0.317949 0.205128 0.050001
v 0.317949 0.205128 -0.049999
v 0.317949 0.305128 0.050001
v 0.317949 0.305128 -0.049999
v 0.417949 -0.194872 0.050001
v 0.417949 -0.194872 -0.049999
v 0.417949 0.205128 0.050001
v 0.417949 0.205128 -0.049999
v -0.282051 -0.194872 0.050001
v -0.382051 0.205128 0.050001
v -0.382051 -0.194872 0.050001
v -0.282051 0.005128 0.050001
v -0.282051 0.205128 0.050001
v -0.182051 -0.194872 0.050001
v -0.282051 -0.294872 0.050001
v -0.182051 0.005128 0.050001
v -0.282051 0.305128 0.050001
v 0.317949 -0.294872 0.050001
v 0.317949 -0.194872 0.050001
v 0.317949 0.205128 0.050001
v 0.317949 0.305128 0.050001
v 0.417949 -0.194872 0.050001
v 0.417949 0.205128 0.050001
v -0.382051 -0.194872 -0.049999
v -0.382051 0.205128 -0.049999
v -0.282051 -0.194872 -0.049999
v -0.282051 0.005128 -0.049999
v -0.282051 0.205128 -0.049999
v -0.282051 -0.294872 -0.049999
v -0.182051 -0.194872 -0.049999
v -0.282051 0.305128 -0.049999
v -0.182051 0.005128 -0.049999
v 0.317949 -0.294872 -0.049999
v 0.317949 -0.194872 -0.049999
v 0.317949 0.205128 -0.049999
v 0.317949 0.305128 -0.049999
v 0.417949 -0.194872 -0.049999
v 0.417949 0.205128 -0.049999
v -0.282051 -0.294872 -0.049999
v 0.317949 -0.294872 0.050001
v -0.282051 -0.294872 0.050001
v 0.317949 -0.294872 -0.049999
v -0.382051 -0.194872 -0.049999
v -0.282051 -0.194872 0.050001
v -0.382051 -0.194872 0.050001
v -0.282051 -0.194872 -0.049999
v 0.317949 -0.194872 -0.049999
v 0.417949 -0.194872 0.050001
v 0.317949 -0.194872 0.050001
v 0.417949 -0.194872 -0.049999
v -0.382051 0.205128 0.050001
v -0.282051 0.205128 0.050001
v -0.382051 0.205128 -0.049999
v -0.282051 0.205128 -0.049999
v 0.317949 0.205128 0.050001
v 0.417949 0.205128 0.050001
v 0.317949 0.205128 -0.049999
v 0.417949 0.205128 -0.049999
v -0.282051 0.305128 0.050001
v 0.317949 0.305128 0.050001
v -0.282051 0.305128 -0.049999
v 0.317949 0.305128 -0.049999
vt 0.990234 0.500000
vt 0.990234 0.500000
vt 0.990234 0.500000
vt 0.990234 0.500000
vt 0.990234 0.500000
vt 0.990234 0.500000
vt 0.990234 0.500000
vt 0.990234 0.500000
vt 0.994141 0.500000
vt 0.994141 0.500000
vt 0.994141 0.500000
vt 0.994141 0.500000
vt 0.990234 0.500000
vt 0.990234 0.500000
vt 0.990234 0.500000
vt 0.990234 0.500000
vt 0.994141 0.500000
vt 0.994141 0.500000
vt 0.994141 0.500000
vt 0.994141 0.500000
vt 0.994141 0.500000
vt 0.994141 0.500000
vt 0.994141 0.500000
vt 0.994141 0.500000
vt 0.990234 0.500000
vt 0.990234 0.500000
vt 0.990234 0.500000
vt 0.990234 0.500000
vt 0.990234 0.500000
vt 0.990234 0.500000
vt 0.990234 0.500000
vt 0.994141 0.500000
vt 0.994141 0.500000
vt 0.994141 0.500000
vt 0.990234 0.500000
vt 0.994141 0.500000
vt 0.990234 0.500000
vt 0.994141 0.500000
vt 0.994141 0.500000
vt 0.990234 0.500000
vt 0.994141 0.500000
vt 0.994141 0.500000
vt 0.994141 0.500000
vt 0.994141 0.500000
vt 0.990234 0.500000
vt 0.990234 0.500000
vt 0.990234 0.500000
vt 0.990234 0.500000
vt 0.990234 0.500000
vt 0.990234 0.500000
vt 0.990234 0.500000
vt 0.994141 0.500000
vt 0.994141 0.500000
vt 0.994141 0.500000
vt 0.990234 0.500000
vt 0.994141 0.500000
vt 0.990234 0.500000
vt 0.994141 0.500000
vt 0.994141 0.500000
vt 0.990234 0.500000
vt 0.994141 0.500000
vt 0.994141 0.500000
vt 0.994141 0.500000
vt 0.994141 0.500000
vt 0.990234 0.500000
vt 0.990234 0.500000
vt 0.990234 0.500000
vt 0.990234 0.500000
vt 0.990234 0.500000
vt 0.990234 0.500000
vt 0.990234 0.500000
vt 0.990234 0.500000
vt 0.994141 0.500000
vt 0.994141 0.500000
vt 0.994141 0.500000
vt 0.994141 0.500000
vt 0.990234 0.500000
vt 0.990234 0.500000
vt 0.990234 0.500000
vt 0.990234 0.500000
vt 0.994141 0.500000
vt 0.994141 0.500000
vt 0.994141 0.500000
vt 0.994141 0.500000
vt 0.994141 0.500000
vt 0.994141 0.500000
vt 0.994141 0.500000
vt 0.994141 0.500000
vn -1.0000 0.0000 0.0000
vn 1.0000 -0.0000 0.0000
vn -0.0000 -0.0000 1.0000
vn 0.0000 0.0000 -1.0000
vn 0.0000 -1.0000 0.0000
vn 0.0000 1.0000 0.0000
usemtl palette.019
s 1
f 1/1/1 2/2/1 3/3/1
f 4/4/1 2/2/1 1/1/1
f 5/5/1 6/6/1 7/7/1
f 8/8/1 6/6/1 5/5/1
f 9/9/1 10/10/1 11/11/1
f 12/12/1 10/10/1 9/9/1
f 13/13/2 14/14/2 15/15/2
f 15/15/2 14/14/2 16/16/2
f 17/17/2 18/18/2 19/19/2
f 19/19/2 18/18/2 20/20/2
f 21/21/2 22/22/2 23/23/2
f 23/23/2 22/22/2 24/24/2
f 25/25/3 26/26/3 27/27/3
f 28/28/3 26/26/3 25/25/3
f 29/29/3 26/26/3 28/28/3
f 30/30/3 25/25/3 31/31/3
f 30/30/3 28/28/3 25/25/3
f 32/32/3 33/33/3 29/34/3
f 32/35/3 28/28/3 30/30/3
f 32/32/3 29/34/3 28/36/3
f 34/37/3 30/30/3 31/31/3
f 35/38/3 32/32/3 30/39/3
f 35/40/3 30/30/3 34/37/3
f 36/41/3 33/33/3 32/32/3
f 36/41/3 32/32/3 35/38/3
f 37/42/3 33/33/3 36/41/3
f 38/43/3 36/41/3 35/38/3
f 39/44/3 36/41/3 38/43/3
f 40/45/4 41/46/4 42/47/4
f 42/47/4 41/46/4 43/48/4
f 43/48/4 41/46/4 44/49/4
f 45/50/4 42/47/4 46/51/4
f 42/47/4 43/48/4 46/51/4
f 44/52/4 47/53/4 48/54/4
f 46/51/4 43/48/4 48/55/4
f 43/56/4 44/52/4 48/54/4
f 45/50/4 46/51/4 49/57/4
f 46/58/4 48/54/4 50/59/4
f 49/57/4 46/51/4 50/60/4
f 48/54/4 47/53/4 51/61/4
f 50/59/4 48/54/4 51/61/4
f 51/61/4 47/53/4 52/62/4
f 50/59/4 51/61/4 53/63/4
f 53/63/4 51/61/4 54/64/4
f 55/65/5 56/66/5 57/67/5
f 58/68/5 56/66/5 55/65/5
f 59/69/5 60/70/5 61/71/5
f 62/72/5 60/70/5 59/69/5
f 63/73/5 64/74/5 65/75/5
f 66/76/5 64/74/5 63/73/5
f 67/77/6 68/78/6 69/79/6
f 69/79/6 68/78/6 70/80/6
f 71/81/6 72/82/6 73/83/6
f 73/83/6 72/82/6 74/84/6
f 75/85/6 76/86/6 77/87/6
f 77/87/6 76/86/6 78/88/6
