# Blender v3.1.2 OBJ File: ''
# www.blender.org
mtllib talaspa2.mtl
o Taladropart.012
v -0.399999 0.200000 0.049999
v -0.399999 -0.200000 -0.050001
v -0.399999 -0.200000 0.049999
v -0.399999 0.200000 -0.050001
v -0.300000 -0.200000 0.049999
v -0.300000 -0.300000 -0.050001
v -0.300000 -0.300000 0.049999
v -0.300000 -0.200000 -0.050001
v -0.300000 0.300000 0.049999
v -0.300000 0.200000 -0.050001
v -0.300000 0.200000 0.049999
v -0.300000 0.300000 -0.050001
v 0.300000 -0.300000 0.049999
v 0.300000 -0.300000 -0.050001
v 0.300000 -0.200000 0.049999
v 0.300000 -0.200000 -0.050001
v 0.300000 0.200000 0.049999
v 0.300000 0.200000 -0.050001
v 0.300000 0.300000 0.049999
v 0.300000 0.300000 -0.050001
v 0.400000 -0.200000 0.049999
v 0.400000 -0.200000 -0.050001
v 0.400000 0.200000 0.049999
v 0.400000 0.200000 -0.050001
v -0.300000 -0.200000 0.049999
v -0.399999 0.200000 0.049999
v -0.399999 -0.200000 0.049999
v -0.300000 0.200000 0.049999
v 0.300000 -0.300000 0.049999
v -0.300000 -0.300000 0.049999
v 0.300000 -0.200000 0.049999
v -0.300000 0.300000 0.049999
v 0.300000 0.200000 0.049999
v 0.300000 0.300000 0.049999
v 0.400000 -0.200000 0.049999
v 0.400000 0.200000 0.049999
v -0.399999 -0.200000 -0.050001
v -0.399999 0.200000 -0.050001
v -0.300000 -0.200000 -0.050001
v -0.300000 0.200000 -0.050001
v -0.300000 -0.300000 -0.050001
v 0.300000 -0.300000 -0.050001
v -0.300000 0.300000 -0.050001
v 0.300000 -0.200000 -0.050001
v 0.300000 0.200000 -0.050001
v 0.300000 0.300000 -0.050001
v 0.400000 -0.200000 -0.050001
v 0.400000 0.200000 -0.050001
v -0.300000 -0.300000 -0.050001
v 0.300000 -0.300000 0.049999
v -0.300000 -0.300000 0.049999
v 0.300000 -0.300000 -0.050001
v -0.399999 -0.200000 -0.050001
v -0.300000 -0.200000 0.049999
v -0.399999 -0.200000 0.049999
v -0.300000 -0.200000 -0.050001
v 0.300000 -0.200000 -0.050001
v 0.400000 -0.200000 0.049999
v 0.300000 -0.200000 0.049999
v 0.400000 -0.200000 -0.050001
v -0.399999 0.200000 0.049999
v -0.300000 0.200000 0.049999
v -0.399999 0.200000 -0.050001
v -0.300000 0.200000 -0.050001
v 0.300000 0.200000 0.049999
v 0.400000 0.200000 0.049999
v 0.300000 0.200000 -0.050001
v 0.400000 0.200000 -0.050001
v -0.300000 0.300000 0.049999
v 0.300000 0.300000 0.049999
v -0.300000 0.300000 -0.050001
v 0.300000 0.300000 -0.050001
vt 0.994141 0.500000
vt 0.994141 0.500000
vt 0.994141 0.500000
vt 0.994141 0.500000
vt 0.990234 0.500000
vt 0.990234 0.500000
vt 0.990234 0.500000
vt 0.990234 0.500000
vt 0.994141 0.500000
vt 0.994141 0.500000
vt 0.994141 0.500000
vt 0.994141 0.500000
vt 0.990234 0.500000
vt 0.990234 0.500000
vt 0.990234 0.500000
vt 0.990234 0.500000
vt 0.994141 0.500000
vt 0.994141 0.500000
vt 0.994141 0.500000
vt 0.994141 0.500000
vt 0.994141 0.500000
vt 0.994141 0.500000
vt 0.994141 0.500000
vt 0.994141 0.500000
vt 0.994141 0.500000
vt 0.994141 0.500000
vt 0.994141 0.500000
vt 0.994141 0.500000
vt 0.990234 0.500000
vt 0.990234 0.500000
vt 0.990234 0.500000
vt 0.994141 0.500000
vt 0.994141 0.500000
vt 0.990234 0.500000
vt 0.994141 0.500000
vt 0.994141 0.500000
vt 0.994141 0.500000
vt 0.994141 0.500000
vt 0.994141 0.500000
vt 0.994141 0.500000
vt 0.994141 0.500000
vt 0.994141 0.500000
vt 0.990234 0.500000
vt 0.990234 0.500000
vt 0.990234 0.500000
vt 0.994141 0.500000
vt 0.994141 0.500000
vt 0.990234 0.500000
vt 0.994141 0.500000
vt 0.994141 0.500000
vt 0.994141 0.500000
vt 0.994141 0.500000
vt 0.990234 0.500000
vt 0.990234 0.500000
vt 0.990234 0.500000
vt 0.990234 0.500000
vt 0.994141 0.500000
vt 0.994141 0.500000
vt 0.994141 0.500000
vt 0.994141 0.500000
vt 0.994141 0.500000
vt 0.994141 0.500000
vt 0.994141 0.500000
vt 0.994141 0.500000
vt 0.994141 0.500000
vt 0.994141 0.500000
vt 0.994141 0.500000
vt 0.994141 0.500000
vt 0.994141 0.500000
vt 0.994141 0.500000
vt 0.994141 0.500000
vt 0.994141 0.500000
vt 0.994141 0.500000
vt 0.994141 0.500000
vt 0.994141 0.500000
vt 0.994141 0.500000
vn -1.0000 0.0000 0.0000
vn 1.0000 0.0000 0.0000
vn 0.0000 -0.0000 1.0000
vn 0.0000 0.0000 -1.0000
vn 0.0000 -1.0000 0.0000
vn 0.0000 1.0000 0.0000
usemtl palette.024
s 1
f 1/1/1 2/2/1 3/3/1
f 4/4/1 2/2/1 1/1/1
f 5/5/1 6/6/1 7/7/1
f 8/8/1 6/6/1 5/5/1
f 9/9/1 10/10/1 11/11/1
f 12/12/1 10/10/1 9/9/1
f 13/13/2 14/14/2 15/15/2
f 15/15/2 14/14/2 16/16/2
f 17/17/2 18/18/2 19/19/2
f 19/19/2 18/18/2 20/20/2
f 21/21/2 22/22/2 23/23/2
f 23/23/2 22/22/2 24/24/2
f 25/25/3 26/26/3 27/27/3
f 28/28/3 26/26/3 25/25/3
f 29/29/3 25/30/3 30/31/3
f 31/32/3 32/33/3 28/28/3
f 31/34/3 25/30/3 29/29/3
f 31/32/3 28/28/3 25/25/3
f 33/35/3 32/33/3 31/32/3
f 34/36/3 32/33/3 33/35/3
f 35/37/3 33/35/3 31/32/3
f 36/38/3 33/35/3 35/37/3
f 37/39/4 38/40/4 39/41/4
f 39/41/4 38/40/4 40/42/4
f 41/43/4 39/44/4 42/45/4
f 40/42/4 43/46/4 44/47/4
f 42/45/4 39/44/4 44/48/4
f 39/41/4 40/42/4 44/47/4
f 44/47/4 43/46/4 45/49/4
f 45/49/4 43/46/4 46/50/4
f 44/47/4 45/49/4 47/51/4
f 47/51/4 45/49/4 48/52/4
f 49/53/5 50/54/5 51/55/5
f 52/56/5 50/54/5 49/53/5
f 53/57/5 54/58/5 55/59/5
f 56/60/5 54/58/5 53/57/5
f 57/61/5 58/62/5 59/63/5
f 60/64/5 58/62/5 57/61/5
f 61/65/6 62/66/6 63/67/6
f 63/67/6 62/66/6 64/68/6
f 65/69/6 66/70/6 67/71/6
f 67/71/6 66/70/6 68/72/6
f 69/73/6 70/74/6 71/75/6
f 71/75/6 70/74/6 72/76/6
